<?xml version="1.0" encoding="UTF-8"?>
<svg id="Layer_1" xmlns="http://www.w3.org/2000/svg" version="1.1" viewBox="0 0 30 30">
  <!-- Generator: Adobe Illustrator 29.8.1, SVG Export Plug-In . SVG Version: 2.1.1 Build 2)  -->
  <defs>
    <style>
      .st0 {
        fill: #c0e4f2;
      }
    </style>
  </defs>
  <path class="st0" d="M26.4,13.5h0c-.9-.5-6.1-.6-6.4-2.5-.1-1.1.5-2.1,1.1-3,.6-.9,2.1-3.2,0-1.6-1.3.8-2.4,2.4-3.6,3.2-.5,0-1.1,0-1.6,0,0-.2,0-.4,0-.6,0-1.2-.4-2.2-.4-3.4,0-.5,0-1-.2-1.3-.1-.3,0-.4,0-.8,0-.4-.2-.9-.2-1.3-.2-2.2-.4.3-.4,1,.2.9-.3,1.1,0,1.7,0,0-.4.5-.2.8,0,0,0,.3,0,.4,0,.2-.2,1-.1,1.7,0,.3-.2.9-.2,1.4-2.1-.7-4.3-1.9-5.8-3.1-.7-.4-1.1-.5-.6.3,1.4,2.1,3.1,4.5,5.4,4.1,3.5-.5-.9,2.1-1.2,3,0,.2,0,.3.2.3.6,0,1.5-.2,1.5.7,0,.8,0,1.9-.3,1.9-.9-.3-2.9-1.5-2.9-2.6,0-.8.5-1.5-.3-1.6-1,0-5.7.7-6.3,1.2-.5.9,6.2,1,6.3,3.1.2,1.6-2.4,3.9-2.8,5.4.9-.4,1.6-1.2,2.5-1.8,5.9-4.5,4.5,4.1,5.2,7.3,0,.4.3,2.2.4.8.6-4.4-1.2-13.8,6.4-6.4.3.1,1,.7.5-.1-2.6-4-5-6.6,1.7-7.4.6-.2,2.3-.2,2.5-.7h-.1ZM9.7,13.6c-.5-.2-.4,0-.5,0-.2,0-.4,0-.4,0,0,0,0,.2-.2.2-.4,0-.3-.2-.3-.2-.2-.1-.2.2-.3.2,0,0-.6.3-.6.3,0,0-.2-.1-.3-.1,0,0-.2,0-.2,0,0,0-.2-.6,0-.7v.5c.3,0,.3-.3.3-.4,0,0,.4.2.4-.2.2-.1,0,.7.3.5,0,0,0-.4.1-.4,0,0,.2.3.6,0v.3c.7,0,.2,0,.5-.4v.3c0,0,.1-.4.1-.4,0,0,.2,0,.2,0,0,0,0,.3.1.4l.2-.3v.5ZM16.1,11.5s0,.2,0,.2c.2,0,.4,0,.6.2,0,.4-.4-.2-.5,0-.2.2.3.4.5.4l-.3.3h.6c-.1.1-.5.1-.6.1,0,0-.4.6-.5.2,0-.6-.2.1-.5,0v-.3s-.6.4-.6.4c0-.5.6-.3.7-.8h0s0,.4,0,.4l.4-.2.2.4c0-.4,0-.7-.4-.5,0-.2,0-.3,0-.5,0,0-.3-.6,0-.3ZM16.8,16.5h0s0,.1,0,.2c0,0-.2-.1-.3,0,0,0,0,.3-.1.3-.2,0-.6,0-.7,0,0,0,.2.3-.4.3,0,0,0-.3-.2-.2,0,0,0,.3,0,.3-.2.2-.7-.3-.3-.6,0,.2.4.2.5.1.2-.1,0-.5.5-.1-.1-.3,0-.3,0-.5-.3.3-.7.3-1.1,0h.6c.2-.2-.5,0-.3-.3,0,0,.4-.1.4,0,0,0,0,.3.1.4.2,0,.2-.4.4-.3-.3.4.2.3.5.4,0,0,0,.2.1.2.3,0,.7-.3.7-.3,0,.4,0,.2-.2.3ZM16.9,15.5h0c.3.3.8-.2.2.5v-.3c-.4,0-.7,0-1.1,0v-.5h.3c.2-.4-.6.2-.4-.4h.6c0,0-.3,0-.3,0,0-.2.2-.4.3-.3,0,0,0,.5.1.5.3,0,.3-.3.3-.4,0,0,.3.3.5.2,0,0-.1-.4.3-.3-.2.3,0,.3,0,.3,0,.3-.5.6-.8.5ZM20.4,14.4h0s0,0,0,0c.2-.2.1-.5-.5-.3-.3,0-.3.6-.4.6,0,0,0-.7-.4-.5-.3-.2-.8-.1-1.1-.3-.4.1-.5-.1-.2-.3,0-.1-.1-.3-.2-.4,0-.2.6.4.6.5h.2c.3-.4.7-1,1.2-.5.2,0-.3.3,0,.3l.4.2c0,0-1,.1-.8.2.4.2,2.3-.4,1.3.6Z"/>
  <path class="st0" d="M12.3,15.3h0c0,.1,0,.3,0,.4,0,0,.5.2.5.2.2,0,.2-.2.2-.2-.3.1-.4-.2-.6-.2.1-.4.3,0,.6,0,0,0,0-.1,0-.2h-.2c0,0,0-.2,0-.2s-.1-.2,0-.2c0,0,.3,0,.3,0,0,0-.2-.1-.3,0,0,0-.1.1-.2.2.1.2,0,.3-.2.4Z"/>
  <path class="st0" d="M13.3,15.4c0,0-.2,0-.3,0,0,0,.1.3,0,.4,0,0,.3,0,.3-.3Z"/>
</svg>
