<?xml version="1.0" encoding="UTF-8"?>
<svg id="Layer_1" xmlns="http://www.w3.org/2000/svg" version="1.1" viewBox="0 0 48 48">
  <!-- Generator: Adobe Illustrator 29.8.1, SVG Export Plug-In . SVG Version: 2.1.1 Build 2)  -->
  <defs>
    <style>
      .st0 {
        fill: #fff;
      }
    </style>
  </defs>
  <path class="st0" d="M23.8,41.3c-.1,0-.2.2-.3.3,0,.1,0,.5,0,.5,0,.2,0,.3.1.3,0,0,0,0,0,.1,0,.1,0,.3,0,.4,0,0,.1.1.2.1h0c.2,0,.3-.2.2-.4,0,0,0-.1,0-.2.1,0,.2-.2.2-.3,0-.3,0-.6,0-.7,0-.1-.2-.2-.3-.2ZM23.8,42.5h0s0,0,0,0h0Z"/>
  <path class="st0" d="M24.2,37.5c-.1,0-.1.2,0,.3h0c-.2,0-.4.1-.5.3,0,0,0-.1-.1-.1h0c0,0-.2,0-.2,0-.2,0-.3,0-.3.2,0,0,0,.2,0,.3,0,0,.2.1.3.1s.1,0,.2,0c0,0,0,0,0,0,0,.2,0,.5.2.7,0,0,.1,0,.2,0s0,0,0,0c-.1,0-.2,0-.2.2,0,.1,0,.3,0,.4,0,0,.2.1.2.1s0,0,.1,0c.1,0,.2-.2.2-.4,0-.2-.2-.3-.4-.3,0,0,0,0,0,0,.3,0,.4-.6.4-.6h0c0-.2,0-.4,0-.5,0,0,.1,0,.2,0h0c0,0,.1,0,.2,0,0,0,.1-.1.1-.2,0-.1,0-.3-.2-.3-.2-.1-.3-.1-.4,0Z"/>
  <path class="st0" d="M19.1,6.1h.1c.4,0,.6-.1.9.2,0,.1.1.4.1.6h0c0,.2,0,.2,0,.2,0,0,0,.1,0,.3,0,.1.1.2.3.2h0c.2,0,.5-.2.5-.5,0-.1,0-.2,0-.4,0,0,.2,0,.3,0,.4,0,.6-.1.9.2,0,0,0,.4,0,.6h0c0,.2,0,.2,0,.2,0,0,0,.2,0,.3,0,.1.1.2.3.2h0c.2,0,.5-.3.5-.5,0-.1,0-.3,0-.5h0c0-.1,0-.1,0-.2h-.1s.1,0,.1,0c0,0,0-.2-.1-.4-.1-.3-.3-.5-.6-.7-.3-.1-.7-.1-.9,0-.1,0-.2.1-.2.2,0,0,0,0,0,0,0,0-.1,0-.2.1,0,0,0-.1,0-.2,0,0,0,0,0,0,0,0,0,0,0,0h0c-.1-.3-.3-.6-.5-.7-.3-.2-.7-.2-.9,0-.1,0-.2.1-.2.2h0s0,.2,0,.2h-.1c-.2,0-.4,0-.4.4v.2s.2,0,.2,0c.1,0,.2,0,.3,0Z"/>
  <path class="st0" d="M18.3,13.1h0s0,0-.1,0c-.1,0-.3-.1-.5,0-.1.1,0,.2,0,.3h0s-.1,0-.1,0c-.1,0-.3,0-.4,0,0,0-.1.1-.1.2,0,.1,0,.2.1.3.2.2.7.2.8.1,0,0,.1,0,.2,0h0c0,0,.2-.1.3-.1,0,0,0,0,0,0,0,0-.1.2-.1.2,0,.1,0,.2,0,.2,0,0,0,0,0,.1h0s0,0,0,0c0,.2,0,.7-.2.8,0,0,0,0-.1,0-.1,0-.3.2-.3.4,0,0,0,.2.1.3,0,0,.1.1.2.2,0,0,.1.1.1.2,0,0,0,0,0,.1,0,0,0,0,0,.1h0c0,0,0,0,0,0,0,0,0,0,0,0,0,0,0,0,0,0,.2,0,.3-.4.2-1.1,0,0,0,0,0,0,0,0,.1-.1.1-.2,0-.5.1-.9.2-1.3v-.3s0,0,0-.1h0c0,0,0-.1,0-.2,0,0,0-.2,0-.2,0,0,0,0,0-.1,0,0,0-.1.1-.2,0-.1.2-.2.2-.4.2-.3.4-1.1.4-1.4,0,0,0,0,0,0,0,0,0-.2.1-.3,0,0,0-.1,0-.2h0c0-.1,0-.2,0-.3,0,0,0,0,0-.1,0,0,.1-.1.1-.2,0,0,0-.2,0-.4,0-.1,0-.2,0-.3,0,0,.2-.6.3-.8,0,0,0,0,0-.1,0-.1,0-.3,0-.5,0,0-.2-.2-.3-.2h0c-.1,0-.2,0-.3.2,0,.1,0,.2,0,.3,0,0,0,0,0,.1,0,.2-.3.8-.4.9,0,0-.1.2-.2.2,0,0,0,0,0,0,0,0-.1,0-.2,0,0,0-.1.1-.1.2,0,0,0,0-.1,0-.1,0-.3,0-.4,0h0s0,0,0,0c0,0-.1.1-.1.2,0,0,0,.2,0,.2.1.2.4.2.8.2s.2,0,.2,0c0,0,0,0,0,.1,0,0,0,0,0,.1,0,0,0,0,0,.1h0c0,0,0,0,0,0,0,0-.1,0-.2.2,0,.1,0,.2,0,.3h0c0,.2,0,.3,0,.3,0,0-.1.1-.1.2-.1.1-.2.2-.3.4,0,0,0,.2,0,.2,0,0,0,0,0,0,0,0,0,0-.1.1,0,0-.1,0-.1.1-.1.1,0,.3,0,.4,0,0,0,0,0,0-.1.2-.2.2-.2.2Z"/>
  <path class="st0" d="M22.7,8.4c0,0-.2-.1-.3-.1-.1,0-.2,0-.3.2,0,.1,0,.2,0,.2,0,0,0,0,0,.1,0,0,0,.1,0,.2,0,0-.1.2-.2.3v.2c-.1.1-.2.2-.2.2,0,0-.1.1-.1.2h0c0,0-.2,0-.3.1-.1,0-.1.2-.1.2,0,0,0,0-.1,0h0c0,.1,0,.1,0,.1v-.2c-.2,0-.3,0-.5,0,0,0-.1.1-.1.2,0,0,0,.2,0,.2.2.2.5.2.8.1,0,0,.1,0,.2,0,0,0,0,0,0,0,0,0,0,0,0,.2,0,0,0,.1,0,.2,0,0,0,0,0,0,0,0-.1,0-.2.2,0,.1,0,.2,0,.2,0,0,0,0,0,.1,0,0,0,.1,0,.2,0,0,0,0-.1.1h0c-.1.1-.2.3-.3.4,0,.1,0,.2,0,.2,0,0,0,0,0,0,0,0,0,0-.1.1,0,0-.1,0-.1.1-.1.1,0,.3,0,.3,0,0,0,0,0,0,0,0-.1.2-.2.2,0,0,0,0-.1,0-.1,0-.3,0-.4.1,0,.1,0,.2,0,.3s0,0,0,0c0,0,0,0-.2,0-.1,0-.3,0-.4,0,0,0,0,.1-.1.2,0,.1,0,.2.1.3.2.2.7.1.8,0,0,0,0,0,.2,0h0c0,0,.2-.2.2-.2,0,0,0,0,0,0,0,0-.1.2-.1.3,0,.1,0,.2,0,.2,0,0,0,0,0,.2h0c0,.3,0,.8-.2,1,0,0,0,0,0,0h0c-.1.1-.2.3-.3.4,0,0,0,.2.1.3,0,0,0,0,.1.1h0c0,0,.1.1.2.2,0,0,0,0,0,0-.1,0-.2.2-.2.2,0,.2.1.4.3.6,0,0,0,0,0,.1,0,.1.1.1.2.2,0,0,.1,0,.3.3,0,0,.1.1.2.3h0c.6.9,1.3,1.9,1.6,2.1,0,0,.1,0,.2,0h0s0,0,0,0c.1-.1.1-.3-.6-1.4,0-.1-.3-.4-.6-.7l-.3-.3c-.2-.3-.4-.5-.5-.7,0,0,0-.1-.1-.2h0c0-.2,0-.2-.1-.3.2-.2,0-.8,0-1.1,0,0,0,0,0-.1,0,0,.1-.1.1-.2,0-.4.1-.8.1-1.3v-.4s0,0,0-.1c0,0,0-.1,0-.2,0,0,0-.1,0-.2,0,0,0,0,0-.1,0,0,0-.1.1-.2,0,0,.2-.2.2-.4.1-.3.3-.8.4-1.3h0c0-.1,0-.2,0-.2,0,0,.1-.2.1-.3,0,0,0-.2,0-.3,0,0,0-.2,0-.2,0,0,0,0,0,0,0,0,.1-.1.1-.2,0,0,0-.2,0-.3,0-.1,0-.2,0-.3,0-.1,0-.2.1-.4.4,0,.6,0,.8.1,0,0,0,.3,0,.5,0,0,0,0,0,.1s0,0,0,0c0,0,0,.1,0,.3,0,.1.1.2.2.2.2,0,.5-.2.5-.4,0-.1,0-.3,0-.5v-.2s0-.4,0-.4c-.1-.3-.3-.5-.5-.6-.2,0-.5-.1-.7,0,0,0,0-.1,0-.2ZM22.6,8.8s0,0,0,0h0s0,0,0,0Z"/>
  <path class="st0" d="M14.2,36.1h0s-.2,0-.2,0c0,0-.2,0-.2,0,0,0,.1-.2,0-.3,0-.1-.1-.2-.2-.3,0,0,0,0,0,0,0-.1-.2-.3-.2-.5,0,0,0-.1,0-.2,0-.1-.1-.2-.2-.2,0,0,0,0,0,0,0,0,0,0,0,0,0,0,0-.2-.1-.3,0,0-.1-.1-.2-.1,0,0,0,0,0,0,.1-.2,0-.3,0-.4,0,0,0,0,0,0,0-.1,0-.3-.2-.4,0,0,0,0-.1-.1,0,0,0,0,0,0,0,0,.2-.1.2-.3,0,0,0-.1-.2-.2,0,0-.1-.1-.2-.2,0-.1-.2-.2-.2-.2,0,0,0,0,0,0,0-.3-.3-.3-.4-.3,0,0,0,0,0,0,0,0,0,0,0,0,0,0,0-.1,0-.2,0,0-.1-.1-.2-.1t0,0c0,0,0-.2,0-.3,0-.2,0-.3-.2-.4,0-.1-.2-.2-.3-.2,0,0,0,0,0,0,0,0,0-.1,0-.2h0c0-.2,0-.3-.2-.4,0-.1-.2-.2-.3-.2,0,0,0,0,0,0,0-.2,0-.2,0-.4h0c0-.2,0-.3-.2-.4,0,0,0,0,0-.1,0-.3-.2-.4-.4-.6,0,0,0,0,0-.2,0,0,0-.2,0-.3,0-.1-.2-.2-.3-.2,0,0,0,0,0,0,0,0,0-.1,0-.2,0,0-.1-.1-.2-.2,0,0,0,0,0,0,0,0,0-.1,0-.2,0-.1,0-.2-.1-.2,0,0,0-.2,0-.4,0,0,0-.1,0-.2,0-.1,0-.2,0-.2h0s0,0,0,0c0,0,0,0,0-.2s0-.2-.1-.2c0,0,0,0,0,0h0c0,0,0-.1,0-.2,0,0,0-.1,0-.2,0,0,0-.2,0-.3,0,0,0-.2,0-.3,0-.1,0-.2,0-.3s0-.2-.1-.3h0c0,0,0-.1,0-.2,0-.1,0-.2.1-.3,0-.1,0-.2,0-.2,0,0,0,0,0,0,0,0,0,0,0,0,0-.2.1-.4,0-.6,0-.1-.1-.3-.2-.4,0-.2-.2-.4-.2-.5,0,0,0-.1.2-.2,0,0,.2-.2.2-.3,0-.2,0-.3-.1-.3,0,0,0,0,0,0,0,0,0-.1,0-.2,0-.1,0-.2-.1-.2,0,0,0,0,0,0,0,0,.1-.1.1-.2,0,0,0-.2,0-.2,0,0,0,0,0-.2,0,0,.1-.3.2-.4,0-.2.2-.3.2-.4,0-.2.1-.4.1-.6,0,0,0-.2,0-.2,0,0,0,0,0,0,0,0,0-.1,0-.2,0-.2,0-.5-.2-.6,0,0,0,0,.1-.1,0-.2,0-.4,0-.6,0,0,0,0,0,0,0,0,0,0,0,0,0,0,.1,0,.1,0,0,0,0,0,0,.1,0,.1,0,.4.3.5h0c0,0,.2,0,.2-.1.2-.2.1-.8,0-1,0-.2-.2-.4-.2-.5,0-.1-.2-.2-.2-.2,0,0,0,0,0,0,0,0,0,0,0,0,0,0,0,0,0,0,0,0,.1,0,.3,0,.2,0,.3,0,.5,0,0,.1.2.2.2.3h0c0-.1,0,0,0,0h0s0,0,0,0c0,0,0,0,.1.1,0,0,0,0,.1,0,0,0,0,0,0,0,0,0,0,.1.1.2h0c0,0,0,.2,0,.2,0,0,.1.1.2.1,0,0,0,0,0,0,0,0,0,0,0,.1,0,0,0,0,0,.1,0,0,0,0,0,0,0,.1.1.2.2.2,0,0,0,0,0,0,0,0,0,0-.1.1-.1.2,0,.5,0,.7h0c0,0,.1,0,.1,0h-.2c0,.1,0,.2,0,.3,0,0,0,.1,0,.2,0,.2,0,.3,0,.4,0,0,0,0,0,.1,0,0-.1.2,0,.4,0,0,0,0,0,.1,0,0,0,0,0,0,0,0-.2,0-.3.1-.1.2,0,.3,0,.4,0,0,0,0,0,0,0,0,0,0,0,0-.1,0-.2.2-.3.3,0,.2,0,.3,0,.5,0,0,0,.2.2.2,0,0,0,0,0,.1h0c0,0,0,.1,0,.2,0,0,0,0,0,0,0,0-.1.1-.1.2s0,.1,0,.2c0,0,0,.1.1.3h0c0,0,0,.1,0,.1,0,.1,0,.2,0,.3,0,.2,0,.4.2.4,0,0,0,0,0,0,0,0,0,0,0,0,0,0-.2.1-.1.3,0,0,0,.1.1.2,0,0,0,0,.2,0,0,0,.3.1.3.2,0,0-.1.2,0,.4,0,0,0,0,.2.1,0,0,0,0,0,.1,0,0,0,.2,0,.2,0,.1.2,0,.3,0,0,0,.1,0,.2,0,0,0,.4.3.7.6,0,0,.2.2.3.2h0c0,0,.2.1.2.2,0,0,0,0,0,0,0,0,0,.1,0,.2,0,.1.2.1.2.2,0,0,0,.2.2.3,0,0,0,0,.1,0,.1,0,.3,0,.4-.2.1-.1.1-.3,0-.4,0-.2-.2-.2-.3-.2,0,0,0,0,0-.1,0,0,0-.2-.1-.3-.1-.2-.4-.4-.6-.5-.1,0-.2,0-.2-.1,0,0,0,0,0,0,0,0,0,0-.1-.2,0,0-.2-.2-.3-.3-.1,0-.2,0-.2,0,0,0,0-.1,0-.2,0-.2,0-.3-.1-.4h0c0,0,0,0,0-.1,0,0,0,0,0,0,0,0,.1,0,.2,0,0,0,.1,0,.2,0h0c.1.2.3.3.5.3s0,0,.1,0c.1,0,.3-.3.4-.5,0-.2,0-.3,0-.3-.1-.2-.4-.2-.6-.2h0s0,0-.1,0h0c-.2,0-.7-.1-.8.2,0,0,0,0,0,0,0,0,0-.1,0-.2,0,0,0-.1,0-.2,0,0,0-.1-.1-.2h0s0,0,0,0h0s0,0,0-.1c0,0,0-.1,0-.1,0,0,0,0,0,0h0c0,0,0-.2,0-.3,0,0,0-.2,0-.3h0c0-.1,0-.3,0-.4,0-.1,0-.2,0-.3h0c0-.1,0-.2,0-.2,0,0,.1-.2.2-.3,0-.1,0-.2,0-.3,0,0,0,0,0-.1,0,0,0,0,0,0,0,0,0-.2,0-.4,0,0,0,0,0-.1,0-.2,0-.4,0-.5,0,0,0,0,0,0,0,0,.3,0,.3-.2,0,0,0-.1,0-.2,0-.1-.2-.1-.3-.1s0,0,0,0c0,0,0-.1,0-.1h0,0c0,0,.1,0,.2-.2,0,0,0-.1,0-.2s0,0,0-.1c0,0,0-.1,0-.2,0-.1.1-.3.1-.4,0-.2,0-.5,0-.7h-.1s.2,0,.2,0c0-.4,0-.8.2-1.2,0,0,0,0,0,0,0,0,.1-.1.1-.3,0,0,0-.1,0-.2,0,0,0,0,0,0,0,0,0,0,0,0,0,0,0-.1.1-.2,0,0,0-.2,0-.2,0,0,0,0,0,0,0,0,0,0,0,0,0,0,0-.1.1-.2.2-.6.5-1.4.8-2.2,0,0,0-.1,0-.1,0,0,0,0,0,0,0,0,0,0,0,0,0,0,.2-.1.2-.3,0-.1,0-.2.1-.3,0-.1,0-.2.2-.4.2-.3.7-1.1,1-1.5,0,0,0-.1,0-.2,0,0,0,0,0,0,0,0,.3-.2.4-.2.2,0,.4,0,.5,0,0,0,0,.1,0,.2,0,0,.1,0,.2.1h0c0,0,0,.2,0,.3,0,0,.1.1.2.1,0,0,0,.2,0,.3v.2c0,0,0,.2,0,.2,0,0,0,0,0,0,0,0,0,0,0,0,0,0,0,.1-.1.2,0,0,0,.1,0,.2,0,0,0,0,0,0,0,0-.4,0-.3.3h0c0,.2,0,.3,0,.4,0,0,0,0,0,0,0,0,0,0-.2.2,0,.1,0,.2,0,.3,0,0,0,0,0,0h0c0,.1,0,.2-.1.3,0,0,0,0,0,0,0,0-.2,0-.3,0-.1,0-.3.2-.4.1,0,0,0,0,0,0h0c-.2,0-.3-.2-.5,0,0,0-.1,0-.1.2,0,0,0,.2,0,.2,0,.1.3.2.7.3,0,0,.2,0,.3,0,0,0,.1,0,.2,0,0,0,0,0,0,0-.2.1,0,.3,0,.4h0c0,0,0,.2,0,.2,0,0,0,.1,0,.2,0,0,0,0,0,0,0,0,0,.2,0,.3,0,0-.2,0-.2.1,0,0,0,.1,0,.2,0,.1.1.2.2.2-.1,0-.1.2-.2.3,0,0,0,0,0,0,0,0,0,.1-.1.2h0c0,.1,0,.2-.1.2h0c-.1.2-.2.3-.2.5,0,0,0,0,0,0,0,0,0,0,0,0-.1,0-.3,0-.4,0,0,0-.1,0-.2.1,0,0,0,0,0,0h0s0,0,0,0c0,0,0,0,0,0h0c0,.1,0,.1,0,.1v-.2s0,0,0,0h0c-.3,0-.4,0-.6,0h0c0,.1-.1,0-.1,0,0,0-.1,0-.1.2s0,.2.1.2c.1.1.3.1.5.2h0c.1,0,.3,0,.4,0s.2,0,.3,0c0,0,0,.1,0,.2s0,0,0,.1h0c0,.1,0,.2,0,.2h0c0,0-.2,0-.3.2,0,0,0,.1,0,.2,0,0,.2.1.2.1,0,0,0,0,0,0,0,0,0,.2,0,.3,0,0,0,0,0,0,0,0,0,0,0,.2,0,0,0,.2,0,.2,0,0,0,0,0,0,0,0,0,0,0,0h0c0,.2-.2.3-.2.5,0,0,0,.1,0,.2,0,0-.2,0-.2,0-.2,0-.4.1-.5.3,0,0,0,0,0,0,0,0,0,0,0,0,0,0,0,.1,0,.2,0,.1.1.2.2.2,0,0,.1,0,.2,0,.2,0,.4,0,.6-.1h0c0,0,.1,0,.2,0,0,0,0,0,.1,0,0,0,.1,0,.3,0,.2,0,.3-.1.4-.3,0-.1,0-.3-.1-.4,0,0-.2,0-.3-.1,0,0-.1,0-.2,0,0,0,0,0,0,0,.1,0,.3-.2.3-.5,0-.2,0-.4,0-.6h0c0-.2,0-.3,0-.4,0-.2,0-.3,0-.5h0c0-.1,0-.2,0-.3,0-.1,0-.2,0-.3h0c0-.1,0-.2,0-.3,0,0,0,0,0,0h0c0-.1.1-.2.2-.2.1-.1.3-.6.3-.9,0-.1-.1-.2-.2-.2,0,0,0,0,0,0,0,0,0,0,0,0,0,0,.1-.2,0-.3,0,0,.1,0,.2,0,.2-.1.2-.4.2-.6,0,0,0,0,0,0,0,0,0,0,0,0,0,0,.1-.1.2-.3,0-.1,0-.2,0-.3,0-.1,0-.2,0-.4,0-.3.3-.9.5-1.2,0-.1.1-.2.2-.3.1-.2.3-.4.4-.7,0-.2,0-.5,0-.8,0-.2,0-.4,0-.5,0,0,0,0,0,0,0,0,.2,0,.2-.2v-.2c.1-.2.2-.4.3-.6,0,0,0,0,0-.1,0,0,.2-.2.1-.3,0,0,0-.1-.1-.2,0,0-.2,0-.2,0-.3,0-.5.6-.5.6,0,0,0,0,0,0,0,0-.1,0-.2.2,0,0,0,.1,0,.2,0,0,0,.1,0,.2,0,0,0,0,0,0,0,0,0,0,0,0,0,0,0-.1-.1-.2-.2-.2-.7-.5-1.1-.5-.4,0-.8.3-1,.6-.2.2-.4.6-.6.8,0,.1-.1.2-.1.3,0,0,0,0,0,.1,0,0-.2,0-.2.2-.1.2-.4.9-.5,1.1,0,.1,0,.3,0,.3,0,0,0,.1,0,.2,0,0,0,0,0,0,0,0,0,0-.1.2,0,.1,0,.2,0,.2,0,0,0,0,0,0,0,0,0,0,0,0,0,0,0,0-.1.2,0,.1-.2.4-.3.6,0,0,0,.1,0,.2h.1s-.2,0-.2,0c0,0,0,0,0,.1,0,0,0,0,0,0,0,0-.1,0-.2.2,0,0,0,.2,0,.2,0,0,0,0,0,.1,0,0-.1.2-.2.4-.1.2-.2.3-.2.4,0,.1,0,.2,0,.3,0,0,0,0,0,0,0,0,0,0,0,0,0,0,0,.1,0,.2,0,0,0,.2,0,.2s0,0,0,0c0,0,0,0,0,.2,0,0,0,.2,0,.2,0,.2,0,.3,0,.5,0,.2,0,.5-.1.7,0,0,0-.1,0-.2,0,0,0-.1-.1-.2,0,0,0,0,0-.1,0,0,0,0,0-.1,0-.1,0-.2-.1-.3,0,0-.2-.1-.2-.2h0s0,0,0,0c0,0,0,0,0,0,0,0,0-.1-.1-.2-.1-.1-.3-.2-.5-.2,0,0,0,0,0,0,0-.2-.3-.4-.4-.4-.6,0-1,.3-1.2.5-.4.4-.2.8,0,1,0,0,0,0,0,.2,0,.1,0,.2.1.2,0,0,0,0,.1,0-.2,0-.3.2-.3.5h0c0,0,0,0,0,0,0,.1,0,.2.2.3,0,0,0,0,0,0-.1,0-.2.3-.2.6,0,.1,0,.2,0,.2,0,.4-.3.9-.5,1.3,0,.2-.2.3-.2.5-.2.4-.2.8-.1,1.2v.2c0,.2,0,.3.1.4t0,0s0,0,0,.2,0,.2,0,.2c0,0,0,.1,0,.2,0,.1,0,.2,0,.3,0,.1,0,.2,0,.3,0,0,0,0,0,0,0,0,0,0,0,0,0,0,0,.1,0,.3,0,.1,0,.2,0,.3h0c0,.1,0,.2,0,.2.1.7,0,1.4,0,2.1h0c0,1.6.3,2.4,1,3.6,0,0,0,.1,0,.2,0,0,0,.2.2.3,0,0,.1.1.2.2,0,0,0,0,.2.2,0,0,0,.1.1.2h0c.2.5.3.8.5.9s.2.3.3.4c.1.2.3.4.4.6.1.1.3.3.4.5.2.2.3.3.4.4,0,0,0,.1,0,.1,0,0,0,.1,0,.2,0,.1.1.2.2.2h0s0,0,0,0t0,0c0,0,0,.1,0,.2h0c0,.2.2.4.4.5,0,0,0,0,0,0,0,.1,0,.3.1.5,0,0,0,0,0,0,0,0,0,.2,0,.3,0,0,.1.1.2.2,0,0,0,.2,0,.3h0c0,.2,0,.3,0,.4,0,.1,0,.2.1.2,0,0,0,0,0,0,0,0,0,.1,0,.2h0c0,.2,0,.4,0,.5,0,.1.1.2.2.2h0s0,0,0,0c0,0,0,.1,0,.3,0,0,0,.3,0,.4v.3c0,.1,0,.2,0,.3,0,.2,0,.4,0,.7,0,0,0,.1,0,.2,0,.1,0,.3.1.5,0,0,0,0,.1,0,0,0,0,0,0,0-.1.2-.1.6-.1,1,0,0,0,0,0,.1h0c0,.1,0,.2,0,.3,0,0,0,.2,0,.3h0s0,.3,0,.3h.2s0,0,0,0c0,0,0,0,.1,0,0,0,.1,0,.2,0,.2-.1.4-.5.4-.8,0-.2,0-.5,0-.7s0,0,0-.1c0-.1.1-.3,0-.4,0,0,0,0,0,0h0c0-.1,0-.1,0-.1,0,0,.1-.2.2-.3,0-.1,0-.2,0-.2,0,0,.1-.1,0-.3,0-.1-.1-.2-.2-.2,0,0,0,0,0,0,0-.1,0-.3,0-.4,0,0,0,0,0-.2,0-.1,0-.2,0-.3,0,0,0,0,0,0,0,0,0-.1,0-.2,0,0,0-.2,0-.3,0,0,0,0,0-.1,0,0,0-.1,0-.1,0,0,0,0,0,0,.1,0,.3-.1.3-.3,0,0,0-.1,0-.2.2,0,.5,0,.6-.2,0,0,0-.1,0-.2,0-.2-.3-.2-.5-.2ZM10.2,30.2s0,0,0,0h0s0,0,0,0ZM13.4,23.1h0ZM16.8,7.4s0,0,0,0h.1s0,0,0,0h-.1ZM15.1,17.6s0,0,0,0h0s0,0,0,0Z"/>
  <path class="st0" d="M21.9,12.9c-.1,0-.2.2-.2.3s.1.3.3.3c0,0,0,0,.1,0h0c.2,0,.4,0,.5-.3,0,0,0,0,0,0,0,0,0-.2,0-.3h0q0,.1,0,.1h0c-.1-.3-.5-.3-.7-.2Z"/>
  <path class="st0" d="M15.3,24.6c0,0-.2,0-.3.1-.1.1-.2.3-.1.4,0,.1.1.2.3.3,0,0,0,0,.1,0,.1,0,.2,0,.3-.1.2-.2.2-.5,0-.6,0,0-.2-.1-.3-.1Z"/>
  <path class="st0" d="M15.1,26.1c0,0,0-.2-.2-.2,0,0,0,0,0,0h0c0,0-.2,0-.2,0-.2,0-.3.2-.3.4,0,.2,0,.3.1.4,0,0,.1,0,.2,0s0,0,.1,0c.3-.1.4-.4.3-.6Z"/>
  <path class="st0" d="M15,23.7h0s0,0,0,0c0,0,0,0,0,0h0c0-.2-.1-.2-.2-.3-.1,0-.3,0-.4,0-.2,0-.2.2-.1.4,0,.1.1.2.2.2,0,0,0,0,0,0,0,0,.2,0,.2,0,0,.1,0,.2.2.3,0,0,0,0,0,0,.1,0,.2.2.4.2h0c0,0,.2,0,.2-.1,0,0,.1-.2,0-.4-.1-.2-.5-.4-.7-.3Z"/>
  <path class="st0" d="M22.8,11.7h0s0,0,0,0h0c0,0,.2,0,.3-.2,0-.1.1-.3,0-.4,0,0-.1-.2-.4-.2-.2,0-.3.2-.3.4,0,.2,0,.3.3.4,0,0,0,0,0,0Z"/>
  <path class="st0" d="M15.4,26.6h0c-.1,0-.2,0-.3.2-.1.3,0,.5.1.5,0,0,0,0,.1,0s.2,0,.3-.2c0-.1.1-.3,0-.4,0-.1-.2-.2-.3-.2Z"/>
  <path class="st0" d="M27.8,27.6h-.1c0,0,0,0,0,0,0,0,0,0-.1,0,0,0,0,0,0,0t0,0c0,0,0-.2-.1-.3,0,0-.7-1.1-1-1.4-.1-.1-.2-.2-.3-.2,0,0,0,0,0,0,0,0-.1-.2-.2-.3-.3-.5-.5-.9-.7-.9,0,0-.2,0-.3.1-.2.2,0,.5,0,.8,0,0,0,0-.1,0,0,0-.2,0-.2.2,0,.2,0,.4.1.5,0,0,0,.2.1.3,0,.2.2.4.3.7h0c.1.3.2.6.3.7,0,.2,0,.2,0,.3,0,0,0,0,0,.2,0,.2.2.6.4.8h0s.2.2.2.2c0,0,.1,0,.2,0s.1,0,.2,0c.4-.3.3-.6.2-.8h0c0,0,0-.1,0-.2,0-.2-.2-.3-.3-.4,0-.1-.2-.2-.2-.3,0,0,0-.2-.1-.3,0-.2-.2-.5-.2-.7,0,0,0-.1,0-.2.2.2.3.5.5.8h0c.1.3.2.5.3.6.2.3.4.3.5.3,0,0,.1,0,.1,0t0,.1c0,0,0,.2,0,.4.2.2.4.5.6.6.1,0,.2.1.3.1s0,0,.1,0c.1,0,.2-.2.3-.3.1-.4-.6-1.1-.8-1.2Z"/>
  <path class="st0" d="M21.6,21.7c-.2-.2-.6-.3-1-.4,0,0-.1,0-.2,0,0,0-.2,0-.3,0h-.2c-.6-.2-1.2-.3-1.4-.3-.2,0-.3,0-.4,0,0,0,0,0,0,0h0s0,0,0,0c0,0,0,0,0,0h0q0,.1,0,.1v-.2c0,0-.1,0-.2-.1-.4-.2-.6-.2-.7-.2,0,0,0,0,0,0,0,0,0,0,0,0,0,0-.1-.2-.3-.1h0c-.1,0-.3.1-.3.2,0,.1,0,.2.1.3,0,0,.1,0,.2,0s0,0,0,0c0,0,0,0,0,.1,0,0,0,.1.2.2h0s.1,0,.1,0c.2,0,.3,0,.5,0h0c0,0,.1,0,.2,0,.2,0,.2,0,.4,0h.3c.5.2,1.4.4,2,.4,0,0,0,0,0,0h.1c.2,0,.4.1.6.1s.2,0,.3,0c0,0,.1-.1.1-.2,0,0,0-.2,0-.3Z"/>
  <path class="st0" d="M17.1,23.1c.2,0,.4,0,.6,0h0s0,0,0,0c0,0,.1,0,.2,0h.1c.3,0,.6,0,.8-.2,0,0,0,0,0,.1h0c0,.1.1.1.3.1,0,0,0,0,.1,0h.2c.3,0,.9,0,1.2-.1.3,0,.4-.2.4-.4,0-.2-.2-.3-.4-.3-.3,0-.6,0-.9,0-.1,0-.2,0-.3,0-.1,0-.2,0-.2,0,0,0-.1,0-.2,0,0,0,0,0-.1,0,0,0,0,0,0,0-.1-.2-.4-.2-.8-.2-.1,0-.2,0-.3,0,0,0,0,0-.2,0,0,0,0,0-.2,0h0c-.3,0-.9,0-1.1,0-.4,0-1.2,0-1.3.5,0,.1,0,.2,0,.3,0,0,.2,0,.2,0s0,0,0,0c0,0,.2,0,.3,0s.3,0,.4,0h.1c.3,0,.5,0,.8-.1h.1Z"/>
  <path class="st0" d="M23.1,30.9c.4,0,.5-.5.5-.6,0-.2,0-.3,0-.4,0-.1,0-.3,0-.4,0-.2,0-.5.1-.9v-.2c0-.3.1-.5.1-.7,0,0,0-.3,0-.5.2-1,.3-1.9,0-2.1,0,0-.2-.1-.3,0,0,0-.1,0-.2.1.1-.3.3-.7,0-.9,0,0-.2,0-.3,0,0,0,0,0,0,0,0,0,0-.1,0-.2,0,0,0-.1,0-.2,0,0-.1,0-.2,0h0c0,0-.2,0-.2,0,0,0,0,0,0-.1,0,0,0-.2,0-.2,0,0-.1-.1-.2-.1-.3,0-.7.3-1.1.6h0c0,0,0,0,0,.1,0,0,0,0-.2,0-.2,0-.3.2-.4.4,0,0,0,.1,0,.2,0,0,0,0-.1,0h0c-.3,0-.6.2-.9.3h0c-.1,0-.2.2-.3.3-.2.2-.5.3-.7.4,0,0,0,0,0,0-.2,0-.2,0-.2,0h0s0,0,0,0c-.5-.3-.7-.2-.8-.1,0,0-.1.1,0,.3,0,.2.2.4.5.5,0,0,.3.2.6.2s.1,0,.1,0c.4-.2.8-.4,1.2-.6h0c.3-.2.6-.4.9-.5.2,0,.3-.3.3-.5,0,0,0,0,0,0h0c.2,0,.4-.2.6-.3h0s.1-.1.1-.1c0,0,.1-.1.2-.2h0s0-.1,0-.1h0c0,0,0,0,0,0-.1.1-.3.3-.5.5h0s0,0,0,0h0c-1.1,1.2-2.1,2.2-3.1,3.3,0,0,0,0,0,0,0,0-.2,0-.3.3h0c0,.2-.2.4-.1.5,0,0,0,.2.2.2,0,0,0,0,.2,0,.2,0,.4-.2.6-.4,0,0,0,0,.1-.1.2-.2.4-.4.6-.6l.2-.2c.5-.5,1-.9,1.4-1.5,0,.1-.1.3-.2.4,0,0,0,0,0,.1-.2.2-.5.7-.1,1,0,0,.2.2.4.1.2,0,.2-.2.3-.4,0,0,0,0,0,0h0c0-.3.3-.6.4-1l.2-.5c0-.1.2-.3.3-.5h0s.1-.2.1-.2c.1-.2.2-.4.3-.5,0,0,0,.1,0,.2l-.3.9c-.3.9-.5,1.8-.8,2.7,0,0,0,.1,0,.2h0c-.1.3-.2.6-.2.9,0,.3.1.4.2.5,0,0,.1,0,.2,0s.2,0,.2,0c.2-.1.3-.3.3-.6,0,0,0-.1,0-.2,0-.4.2-.8.3-1.1,0-.2.2-.6.2-.9,0-.3.1-.6.2-.8,0-.2.2-.5.3-.7h0c0,.6,0,1.3,0,2.1,0,.2,0,.3,0,.4,0,.3,0,.6,0,.9h0c0,.3,0,.6,0,.9,0,.2,0,.4.1.6,0,0,0,0,0,0h-.1c0,.1.3.1.3.1Z"/>
  <path class="st0" d="M29.1,25.1c0-.1.1-.3,0-.5-.1-.3-.4-.3-.7-.4,0,0-.2,0-.2,0,0,0-.2-.1-.3-.2,0,0-.2-.1-.3-.2-.1,0-.2,0-.4,0-.1,0-.2,0-.3,0,0,0-.2-.1-.3-.2,0,0-.1,0-.2-.1.2,0,.4.1.8.2,0,0,0,0,.1,0h0c.1,0,.3.1.4.1s.2,0,.3,0c0,0,.2-.1.2-.3,0-.2,0-.3,0-.3-.2-.2-.5-.2-.8-.2,0,0-.2,0-.2,0h-.3s0,0,0,0c-.4,0-.7,0-.8,0,0,0-.1.1-.1.3,0,.1.1.2.2.2,0,0,0,0,0,0,0,0,0,0,0,0-.5-.1-.7-.1-.7,0,0,.2.1.3.6.5h.2c.1.1.4.2.5.3,0,0,0,0,0,.1,0,0,0,.2.2.3h0c.1.1.2.2.4.3.3.2.8.4,1.1.5h0s.2,0,.2,0c.2,0,.3,0,.4-.2h0Z"/>
  <path class="st0" d="M17.8,24.2c0,.1.1.3.4.3h0c.2,0,.4,0,.6-.1h0c0,0,.2,0,.3-.1,0,0,.2,0,.4,0,.6-.1,1.1-.2,1.4-.4,0,0,.1,0,.2-.1.2-.1.5-.3.4-.6,0,0,0-.2-.1-.2-.2,0-.4,0-.6.1,0,0-.1,0-.2,0-.3,0-.6.2-.9.2-.6.1-1.2.3-1.8.5-.1,0-.2.2-.2.4h.1s-.1,0-.1,0Z"/>
  <path class="st0" d="M24,32.7c0,0-.2-.2-.4-.2s-.3,0-.4.2c-.2.2-.1.5,0,.8h.1s-.1,0-.1,0c0,0,0,.2,0,.2,0,0,0,.2,0,.3,0,.4,0,.7,0,1,0,.1.2.2.3.2s.1,0,.2,0c0,0,0,0,0,0h0c.2,0,.2-.2.2-.4h0c0-.2,0-.3,0-.5h0c0-.2,0-.4,0-.5,0,0,0-.1,0-.2,0-.4.1-.7,0-.9Z"/>
  <path class="st0" d="M20.9,17c0,.3.3.7.6,1.1,0,.1.2.3.2.4,0,.1.2.3.3.5h0c.2.5.5,1,.7,1.1,0,0,0,0,.1.1,0,.1.2.2.3.2h0c.1,0,.2-.1.3-.2.2-.3-.2-.7-.5-1h0c0-.1-.2-.3-.2-.3-.2-.3-.3-.7-.5-1-.1-.3-.3-.7-.5-1,0,0-.1-.2-.3-.3h0s-.1,0-.1,0c0,0-.2,0-.3,0h0c0,0-.1,0-.2,0,0,0,0,.2,0,.3Z"/>
  <path class="st0" d="M24.8,28.6h0c0,0,0-.1,0-.2,0,0,0-.2,0-.4,0-.2,0-.3-.1-.5,0-.2,0-.3-.1-.5,0,0,0-.2,0-.3,0-.4,0-.8-.2-1-.1,0-.2-.1-.3,0-.2,0-.2.3-.2.5v.2c0,.3,0,1.7.2,2,0,.2,0,.3.2.3,0,0,0,0,0,0,0,0,0,.1,0,.2,0,.2,0,.5.1.7,0,0,.1.1.2.1,0,0,0,0,0,0h0c.1,0,.2,0,.2-.1h0c.2-.2,0-.5,0-.8,0,0,0-.2,0-.2Z"/>
  <path class="st0" d="M25.2,15.5c-.1,0-.2,0-.3,0h0s0,0,0,0c-.3.2-.3.7-.3,1.1h0c0,.2,0,.2,0,.3,0,0,0,.2,0,.3,0,0,0,.2,0,.4h0c0,.1,0,.1,0,.2,0-.2,0-.5,0-.9,0,0,0-.2,0-.3,0-.1,0-.3,0-.5v-.2s0,0,0,0c0-.2,0-.7,0-.9h0c0-.2,0-.3,0-.3,0,0,0-.3-.2-.4-.2,0-.3,0-.4.1-.2.2-.1.5,0,.7,0,0,0,0,0,.1,0,0,0,0,0,.2h0c0,0,0,.1,0,.2h0c0,.3,0,.6,0,.8,0,.5,0,1,0,1.6,0,0,0,.2,0,.3,0,0,0,0,.2,0s.1,0,.1,0c0,0,.1-.2.2-.3,0,.3-.1.6-.1.8,0,.2,0,.4.1.5h0s0,0,0,0h0s0,0,0,0h0s0,0,0,0h0c.2,0,.3-.2.3-.4,0-.2.1-.5.2-.8h0c0-.4.1-.8.2-1v-.3c.2-.4.4-.9.3-1.2,0-.2-.1-.3-.2-.3Z"/>
  <path class="st0" d="M29,20.2h0c0,0-.1,0-.2,0-.2,0-.4.1-.6.2h0c0,0,0,0,0,0,0-.1,0-.2,0-.3-.1-.2-.4-.2-.7-.1-.3,0-.8.5-1.3.9,0,0-.6.7-.5.9,0,0,.1,0,.2,0s.2,0,.2,0c0,0,0,0,.1,0h0c0,0,.2,0,.3,0,0,0,.2,0,.3,0h0c.6-.2,1.4-.4,2-.5,0,0,0,0,.1,0,.2,0,.6,0,.7-.3,0-.1,0-.2,0-.4,0-.1-.1-.2-.2-.3-.2,0-.4,0-.6,0Z"/>
  <path class="st0" d="M22.2,21.6c0-.1,0-.2-.2-.4,0,0,0-.1,0-.2,0-.5-1.2-1.3-1.4-1.4,0,0,0,0,0,0,0,0-.1-.1-.2,0-.1,0-.1.1-.1.3,0,0,0,.2,0,.3-.2-.1-.4-.2-.5-.1h0s0,0,0,0c0,0,0,0,0,0-.1,0-.2,0-.2,0,0,.1,0,.2,0,.2,0,0,0,0,0,.1.1.3.5.4,1,.6.1,0,.2,0,.3.1.1,0,.3.1.4.2h.1c.4.3.5.3.6.3s.1,0,.2,0Z"/>
  <path class="st0" d="M30.3,23.7h0c.2-.1.3-.3.3-.6h0c0-.1,0-.1,0-.1,0,0-.2,0-.3-.1-1-.2-1.2,0-1.3,0,0,0,0,0,0,0,0,0-.1,0-.2.1,0,0,0,.2,0,.2h0c.1.3.7.5,1.1.5s.2,0,.3,0Z"/>
  <path class="st0" d="M16.7,29.5h-.2c0,0,0,.1,0,.1,0,0-.1.2-.1.3,0,.2,0,.5.3.6,0,0,.2,0,.3,0s.2,0,.3-.1c.2-.1.2-.5.1-.7-.1-.2-.4-.5-.7-.4Z"/>
  <path class="st0" d="M32.3,22.4h0c.2,0,.5-.2.6-.5,0-.2,0-.3-.2-.3-.1,0-.8-.2-1,0,0,0,0,0,0,.1-.1-.2-.3-.3-.5-.2h0s0,.2,0,.2h0c0-.1-.2,0-.3,0,0,0,0,.1,0,.2,0,0,0,0,0,0,0,0,0-.2-.1-.2-.2-.2-.6,0-.9,0h-.2c-.3,0-.7,0-1,0h0c-.5,0-.9,0-1.4.1,0,0,0,0-.1,0-.1,0-.3,0-.4.2,0,0,0,.2,0,.3,0,.2.3.3.7.3s.6,0,.8,0c.2,0,.5,0,.8,0h0c.2,0,.4,0,.5,0h0c0-.1,0,0,0,0,.1,0,.2,0,.3,0,0,0,.2,0,.3,0,0,0,0,0,0,0h0c.2,0,.4,0,.5-.2,0,0,0-.1,0-.2,0,.1.1.3.3.3,0,0,.1,0,.2,0,.1,0,.2,0,.3,0,0,0,.1-.1.1-.2,0,.2.3.3.5.3h.2Z"/>
  <path class="st0" d="M26.6,18.7c0,0,0,.2-.2.3,0,0-.1.2-.2.3h-.1c-.5.6-1.1,1.4-.7,1.9h0c0,0,0,0,0,0h0s0,0,0,0h0c.3-.3,1.1-1.5,1.1-1.5,0,0,0-.1,0-.2,0,0,0-.1.1-.2,0,0,0,0,.1,0,.1,0,.3-.2.4-.4,0-.1,0-.2-.1-.3,0,0,0,0,.1,0s0,0,0,0h0c.3-.1.5-.5.6-.6h-.1c0,0,0,0,0,0h.2c0,0,0-.1,0-.2,0,0,0-.2-.2-.3-.1,0-.3,0-.4,0-.1,0-.2.1-.2.2,0,0,0,0,0,0,0,0,0,0,0,0h0q0,.1,0,.1h-.1c0,0-.2,0-.2.1,0,.1,0,.3,0,.4,0,0-.2-.1-.3-.1-.2,0-.2.2-.3.3Z"/>
  <path class="st0" d="M26.8,25.5h0s0,0,.1.1c0,0,.1.2.3.2,0,0,0,0,.1,0h0s0,0,.1,0c0,0,0,.2.2.2,0,0,.4.5.8.6,0,0,0,0,.2,0,.1,0,.3,0,.4-.2h0s0,0,0,0c0-.1,0-.3,0-.5l-.3-.4h0c-.2,0-.5-.2-.6-.2-.1,0-.2,0-.3,0,0-.2-.3-.3-.4-.4,0,0,0,0-.1,0,0,0,0,0-.1-.1-.1-.1-.2-.2-.4-.3-.2-.3-.7-.7-1.1-.7-.1,0-.2,0-.3.1,0,0,0,.2,0,.3.1.3.6.6.9.8,0,.2.2.3.3.4h0s.2.1.2.1Z"/>
  <path class="st0" d="M23.8,31.3c0-.1-.1-.3-.4-.2-.2,0-.3.3-.3.5,0,0,0,0,0,0,0,0,0,0,0,0,0,0-.2.3,0,.5,0,0,.2.1.3.1s0,0,.1,0c.2,0,.3-.2.3-.4,0-.2,0-.5,0-.7h0Z"/>
  <path class="st0" d="M29.7,18.2c-.2,0-.2.3-.2.5h0c0,.2.3.5.5.5h0s.2,0,.3-.2c0-.1,0-.2,0-.3,0,0,0,0,0,0,0,0,.2-.1.2-.2s0-.1-.1-.2h0c0,0-.2-.1-.3-.1h0c0-.1.2-.2.2-.3s0-.2-.2-.3c-.2-.1-.4,0-.5.2,0,.1,0,.2,0,.3.1,0,.3.1.4.1h0c-.1,0-.3,0-.4,0Z"/>
  <path class="st0" d="M31.4,27.3l-.3-.2h0c-.1.1-.3.2-.4.3-.1.1-.2.3-.1.4,0,.2.2.3.4.3h0c.2,0,.3,0,.4-.2.2-.3.1-.5,0-.6Z"/>
  <path class="st0" d="M23.8,12s0,0,0,0h0s0,0,0,0h0c0-.1,0-.2,0-.3-.1-.2-.2-.2-.3-.2-.3,0-.4.6-.4.6,0,.1,0,.2,0,.2,0,0,0,0,0,.1,0,0,0,.1,0,.2,0,0,0,.2,0,.3,0,0,0,0,0,0,0,0,0,0,0,0,0,0,0,0,0,.1,0,.3-.1.7-.2,1,0,.2,0,.3,0,.4h0c0,.3,0,.5,0,.7,0,0,0,.2,0,.3,0,0,0,.1,0,.2,0-.1,0-.2-.1-.2,0,0-.2,0-.2,0,0,0,0,0,0,0,0,0-.2,0-.2.1-.1.2,0,.4,0,.6,0,0,0,0,0,0,0,.2.2.6.3,1v.3c.1,0,.6,1.2,1.1,1.2h0c0,0,.2,0,.3-.3,0-.4-.1-.9-.5-1.6,0,0,0,0,0,0,0-.2,0-.5,0-.8s0-.3,0-.4c0-.1,0-.2,0-.3,0,0,0,0,0-.1,0,0,0-.1,0-.2,0-.2,0-.5,0-.7,0-.1,0-.2,0-.2,0,0,0,0,.1-.2,0-.1.1-.5.1-.9v-.3c0,0,0-.1.1-.2,0,0,0-.1,0-.2,0-.1,0-.2,0-.3,0,0,0,0,0,0,0,0,0,0,0-.1,0,.1,0,.2,0,.3l.2.3h-.3s.2.1.2.1c0,.2-.1.4,0,.6,0,.2.1.3.3.3h0c0,0,.2,0,.3-.2,0-.1,0-.3,0-.5h0l-.2-.2s0,0,0,0c0,0,0,0,0,0h0c-.1-.1-.2-.1-.3,0v-.2s0,0,0,0h0c.2,0,.4-.2.4-.4,0-.1,0-.3,0-.4-.2-.2-.4-.2-.6,0Z"/>
  <path class="st0" d="M19,19.8c.2,0,.3,0,.4-.2,0-.1.1-.3,0-.4,0,0-.2-.2-.5-.2-.2,0-.3.2-.3.4,0,.2,0,.3.3.4h0s.1,0,.1,0Z"/>
  <path class="st0" d="M25.5,18.1c-.4.3-.7,1.5-.7,1.9h0c0,.1,0,.1,0,.1,0,0,.1.1.2.1h0c.3,0,.6-.7.7-.9.1-.3.4-1.1,0-1.3,0,0-.2,0-.4,0Z"/>
  <path class="st0" d="M29.6,26.5h0c-.3.1-.4.5-.3.7,0,.1.2.2.3.2s0,0,.2,0c.2,0,.3-.3.3-.4,0-.2,0-.3-.1-.4,0,0-.2-.1-.4,0Z"/>
  <path class="st0" d="M20.1,28h-.3c0,0,0,.1,0,.1,0,0,0,.1,0,.2,0,.2.3.6.6.6s.2,0,.2-.1c0-.2,0-.4-.1-.5,0-.1-.3-.3-.5-.3Z"/>
  <path class="st0" d="M29.5,30.8h-.1c-.1-.2-.3-.1-.4,0-.3.2-.3.4-.2.6,0,.1.2.2.3.2s.2,0,.2,0c.2,0,.2-.3.2-.4,0,0,0-.2,0-.2h0Z"/>
  <path class="st0" d="M26.3,17.1c-.1,0-.2,0-.3,0-.1,0-.2.3-.2.5,0,.2,0,.3.2.4,0,0,0,0,.1,0,.1,0,.3,0,.3-.2.1-.2,0-.6-.2-.8Z"/>
  <path class="st0" d="M28.9,18.9c-.1,0-.3,0-.4,0-.2.2-.2.4,0,.6,0,0,.1.1.2.2h0s.2,0,.2,0c0,0,.2,0,.2,0,.1,0,.2-.2.2-.3,0-.2-.1-.4-.3-.4Z"/>
  <path class="st0" d="M31.7,23.6h0s.1,0,.1,0c.1,0,.2-.4.2-.4,0,0,0-.1,0-.2-.2-.1-.3,0-.5,0-.1.1-.2.4,0,.5,0,0,.1.1.2.1s0,0,.1,0Z"/>
  <path class="st0" d="M23.9,35.4c-.1,0-.3,0-.4.3-.2.4-.2,1.3.2,1.5,0,0,.1,0,.2,0s.1,0,.2,0c.3-.2.3-.9.2-1.2,0-.3-.2-.5-.3-.6h0Z"/>
  <path class="st0" d="M26.9,29.8c-.2-.1-.4,0-.5.1,0,0,0,.2,0,.3,0,0,0,0-.1,0h0s0,0,0,0c0,0-.3,0-.3.4,0,.1,0,.2.2.3,0,0,0,0,.1,0,0,0,.2,0,.3,0,.1,0,.3-.3.2-.5,0,0,0,0,0,0,0,0,.2,0,.2,0,0,0,.2-.2.2-.3,0,0,0-.1-.1-.2h0Z"/>
  <path class="st0" d="M40.8,20.3h0c0-.1,0-.2-.1-.3,0,0,0-.1,0-.2,0,0,0-.1,0-.2,0-.2,0-.4-.1-.6v-.2c-.2-.2-.4-.5-.5-.7,0-.1,0-.2,0-.2,0,0,0-.1,0-.3h0c0-.4,0-.7-.1-.9,0,0,0-.1,0-.2,0-.1,0-.3-.2-.4.2-.1.2-.4.2-.5h0c0,0,0-.1,0-.2,0-.4,0-.7-.3-.9-.2-.2-.3-.2-.7-.3h0c-.3,0-.8.2-1,.5-.1.2-.2.2-.3.3,0,0,0,0-.1.1h0c0,.1-.3.3-.4.6,0-.2-.2-.5-.4-.6.2-.2.1-.5,0-.7h0c0-.2,0-.2,0-.2,0,0,0-.1,0-.2,0-.4-.2-.7-.4-1h0c-.1-.3-.2-.6-.3-.9,0,0,0-.1,0-.3,0-.2-.1-.3-.2-.3,0,0,0,0-.1-.1,0,0,0,0,0-.2,0-.2-.2-.6-.4-.7,0-.1,0-.3,0-.6-.1-.5-.5-1.1-.7-1.4,0,0,0,0,0-.1h0c0-.2-.1-.3-.2-.4,0,0,0-.2-.2-.4-.3-.4-1.1-.9-1.5-1-.4-.1-.7,0-.9,0,0,0-.2,0-.2.2,0,0,0,0,0,0,0,0,0-.2-.1-.2,0,0-.1-.1-.2-.1,0,0,0,0-.1-.1,0,0,0,0,0,0,0,0,0-.2,0-.3-.1-.2-.5-.7-.8-.9h0s0,0,0,0c-.2,0-.3-.1-.5-.2-.2,0-.4,0-.5,0h0c-.2,0-.4.3-.6.5,0,0-.1.1-.2.2,0,0,0,0-.1.1,0,0,0,0-.1,0-.2,0-.4-.2-.6-.1,0,0-.4.1-.6.2,0,0,0,0,0,0h0c0,0-.2.1-.3.3,0,0,0,0,0,0h0c-.1.2-.2.3-.3.6,0,0,0,.2,0,.3h0c0,.2-.1.4-.1.7,0,0,0,.2,0,.4,0,0,0,.2,0,.3,0,0-.1,0-.2,0-.3,0-.5.1-.7.3l-.3.2h-.1c0,.2-.2.3-.2.4,0,.2,0,.4,0,.5,0,0,.2,0,.3,0h0c0,0,0,0,0,0,0,0,0-.1,0-.2,0,0,0,0,0,0h0c0-.2.2-.4.3-.4.2,0,.3,0,.4,0,0,0-.1.2-.1.3,0,.3.3.3.5.3h0s0,0,0,0c0,0,0,.1.1.2.1.1.1.2.1.2,0,0,0,0,0,0,0,0,0,0,0,.2,0,.5,0,.8,0,1.3,0,0-.2,0-.3,0,0,0,0,0,0,0,0,0,0-.1-.1-.2-.1,0-.2,0-.3,0h0s0,0,0,0c0,0,0-.2-.1-.3,0,0-.2-.6-.2-.8,0,0,0,0,0,0,0,0,0-.2,0-.3,0,0-.1-.2-.2-.2-.1,0-.3,0-.3.1-.1.1,0,.3,0,.4,0,0,0,0,0,.1,0,.1,0,.4.1.6h0c0,.2,0,.3,0,.4h0c0,.2,0,.3,0,.4,0,.1,0,.2.1.2t0,0s0,.1,0,.2c0,0,0,.2,0,.3h0c0,.1,0,.2,0,.3,0,0,0,0,0,.1,0,0,0,0,0,.1,0,.4,0,.9.2,1.1,0,.2.2.3.2.4,0,0,.1.1.1.2,0,.1,0,.2,0,.3,0,.1,0,.2,0,.3,0,.3.3.3.4.4,0,0,0,0,.1,0,.1,0,.2.1.3.2.1,0,.2.2.3.2.1,0,.3.1.5.1s.3,0,.4,0c.1,0,.2-.2.1-.3,0,0,0-.2-.1-.2,0,0,0,0,0,0,0,0,0,0,0,0,0-.2,0-.5-.1-.6-.2-.1-.4-.1-.5,0,0,0-.1,0-.2.1,0,0-.2,0-.3,0,0,0-.1,0-.1,0,0,0-.2-.2-.2-.3,0,0,0,0,0,0,.2-.2.2-.4,0-.6,0,0-.1-.2-.3-.2,0,0,0,0,0-.1,0-.2-.2-.3-.2-.4,0,0-.1-.1-.1-.1,0,0,0,0,0-.1,0,0,0,0,0-.1,0,0,.1-.1,0-.2,0-.1,0-.2-.2-.2h0s0,0,0-.2c0,0,0-.1,0-.2,0,0,0,0,0,0,0,0,.1,0,.2,0h0c.3,0,.5,0,.7,0,0,0,0,0,0,0v.2s0,0,0,.2c0,.2,0,.6.5.6.1,0,.3,0,.3-.1.1-.2,0-.5,0-.8,0,0,0,0,0,0-.1-.4-.1-1-.1-1.4v-.3c0-.2,0-.3,0-.4,0,0,0-.2,0-.3s0-.2-.1-.3c0,0,0-.1,0-.2,0,0,0-.2,0-.2,0,0,.1-.1.1-.2,0-.1-.1-.2-.2-.3,0,0,0,0,0,0,0,0,0,0,0-.2,0,0,0-.2,0-.2,0,0,0,0,0,0,0,0,0-.1,0-.2,0-.2,0-.4,0-.6,0,0,0-.1,0-.2h0c0-.3,0-.6.2-.8.1-.2.4-.2.6-.3h0s0,0,.2.1c0,0,.2,0,.2,0,0,0,0,0,0,0,0,.1,0,.3,0,.6,0,0,0,.1,0,.2,0,.3.2.8.2,1.1,0,.1.1.2.2.3,0,0,0,.1.1.2,0,0,0,.2,0,.3h0c0,.3,0,.5.1.6,0,.1.1.2.2.2t0,0s0,0,0,.1c0,0,0,.2,0,.3,0,.3,0,.6.2,1,0,.1,0,.3,0,.5h0c0,.5.1.9.2,1.2,0,0,0,.1,0,.2h0c0,.3.2.6.2.9,0,.1,0,.2,0,.3h0c0,.3,0,.5,0,.7,0,0,0,.1,0,.2,0,.4,0,.9.2,1.1,0,.1.2.2.3.2h0c.2,0,.2-.3.2-.5,0-.2,0-.4,0-.7,0-.2,0-.4,0-.5,0-.2,0-.4,0-.7,0-.3,0-.6,0-.8,0-.2-.1-.4-.2-.5,0-.1-.1-.2-.2-.4h0c0-.5-.3-1.3-.3-1.7,0,0,0-.2,0-.2,0-.3,0-.4-.2-.7,0,0,0-.1.1-.2,0,0,0,0,0,0,0,0,.1.2.4.2h0c.3,0,.7-.1.8-.3,0,0,0,0,0,0,0,0,0,0,0,0,0,0,0,0,0,0,0,.1.1.3.3.4,0,0,0,0,.1,0s0,0,0,0v.2s.2-.3.2-.3c.1,0,.1-.2.1-.3v-.5s-.2.2-.2.2c0,0,0,0,0,0,0,0,0,0,0,0,0,0,0,0,0-.1,0-.1,0-.3-.1-.4,0,0,0,0,0,0,0,0,0,0,0,0,.1-.1.1-.3.1-.5h0c0-.2,0-.2,0-.3,0,0,0,0,0,0h0c0-.2,0-.4,0-.5,0,0,.1,0,.2-.1h0s0,0,0,0c0,0,0,0,.1,0,0,0,0,0,0,.1,0,0,.2,0,.3,0,.1,0,.6.2.7.3,0,0,0,0,0,.1,0,0,0,.1.2.2,0,0,.2,0,.3,0,0,0,.1,0,.1,0,0,0,0,0,0,0h0c0,.1,0,.2,0,.3,0,.1.1.3.2.5,0,.1.1.2.2.3,0,0,0,.2.1.3h0c0,.2,0,.3,0,.3,0,.1,0,.2.1.2,0,0,0,0,0,.1s0,.2,0,.2c0,0,.1.1.2.2,0,0,0,.1,0,.2,0,0,0,0,0,0,0,0,0,0,0,0h0c-.1,0-.2,0-.3.2,0,0,0,.2,0,.3,0,0,0,.1.2.1.1,0,.2,0,.3,0,0,0,0,0,0,0,0,0,.1.2.2.4,0,0,0,0,0,0h0c0,.2.2.5.3.8h0c0,.2,0,.3,0,.3.1.3.3.7.3.9,0,.1,0,.2,0,.3h0c0,.1,0,.2,0,.3,0,0,0,0,0,0,0-.1-.1-.2-.2-.2-.2,0-.5,0-.6.2h0c-.1.2,0,.3,0,.3h0c0,.1.2.1.3.1s.2,0,.3,0c.1,0,.2-.2.2-.4,0,.3.1.5.2.5,0,0,0,0,0,0,0,0,0,0,0,0h0s0,0,0,0c0,.2,0,.5,0,.7,0,0,0,0,0,0h.1s0,0,0,0h-.1c0,.2,0,.3.2.3,0,0,0,0,.1,0s0,0,0,0h0c0,.2-.1.4,0,.6,0,0,0,.1.2.2,0,0,0,0,.1,0,0,0,0,0,.1,0,.1,0,.2-.3.2-.4h0c0,0,0,0,0-.1,0,0,0,0,0,0,0,0,.2,0,.3-.2,0-.1,0-.3,0-.3,0,0,0,0,0,0h0c0,0,.2,0,.3-.2,0,0,.1-.1.2-.2l.2-.2c0-.1,0-.2,0-.3,0,0,.2-.1.4-.2,0,0,.1,0,.2,0,.1,0,.3,0,.4,0,0,0,0,0,0,.2,0,0,0,0,0,0h0c0,.3,0,.6,0,.8,0,0,0,0,0,0-.1.1,0,.3,0,.5,0,0,0,0,0,0h0c0,0,0,.2,0,.3,0,0,0,.1,0,.2,0,0,0,0,0,0,0,0,0,0,0,0,0,0,0,0,0,0,0-.2,0-.5-.1-.7,0,0,0,0,0,0,0-.1,0-.4,0-.5h0c0-.1,0-.1,0-.1h0c0-.3,0-.5-.1-.6h0c0,0-.1,0-.2,0-.2,0-.2.3-.2.5,0,0,0,.1,0,.2,0,.2,0,1.1.1,1.4,0,0,0,0,0,.1,0,0,0,.2.2.2h0c0,0,.1,0,.2,0,0,0,0,.1,0,.2,0,.1.2.2.3.2,0,0,.2,0,.2.1,0,0,0,.1,0,.2,0,.1,0,.2,0,.4,0,.1.1.2.2.2,0,0,0,0,0,0,0,0,0,.2,0,.3s0,.2,0,.3c0,.2,0,.3.1.4,0,.1,0,.3.1.4,0,.4,0,1.1-.1,1.5,0,.2,0,.3,0,.3,0,0,0,0,0,0,0,0,0,0,0,0,0,0-.1.1-.2.3,0,.1,0,.3,0,.5,0,.1,0,.2,0,.3s0,0,0,.1c0,0,0,.2,0,.3,0,0,0,.1,0,.2,0,0,0,0,0,0,0,0-.1,0-.2,0h0c0,0,0,.1,0,.1,0,0,0,.2.1.3,0,0,0,0,0,0,0,.1,0,.3,0,.5,0,0,0,0-.1,0,0,0,0,.2,0,.2,0,.1,0,.2,0,.3-.1.1-.1.3-.2.4h0c0,.2,0,.3,0,.4,0,0,0,0,0,0,0,0,0,.1,0,.3,0,0,0,.1,0,.2h0s0,0,0,0c0,0-.1,0-.1.2,0,.1,0,.2,0,.3,0,0,0,0,0,0,0,0,0,0,0,0,0,0-.2.1-.2.3,0,.2,0,.3.1.3,0,.1,0,.4,0,.5,0,0,0,.2,0,.2,0,0,0,0,0,0,0,0-.1.2-.2.3,0,0,0,.1-.1.2,0,0,0,0-.1,0,0,0-.2,0-.2.1,0,0,0,.2,0,.3h0c0,.1,0,.3,0,.5,0,0-.1.2-.3.4,0,0,0,0,0,0,0,0,0,0-.1.1,0,0,0,.1-.1.2h0c0,0,0,.1,0,.1,0,0,0,0-.1,0,0,0-.1,0-.2.1,0,0-.1.2-.1.2,0,0,0,0,0,0,0,0,0,0-.1,0-.2,0-.4,0-.6.2h0c0,.1.1.2.1.2,0,0,.1.1.2.2,0,0,0,0-.2.1,0,0,0,0-.1,0-.2,0-.5,0-.6.2,0,0,0,.2,0,.2,0,.2.3.2.4.2,0,0,0,0,0,0,0,0,0,0,0,0,0,0,0,.1-.1.2,0,0,0,0,0,0,0,0-.1,0-.2.1,0,0,0,.2,0,.3-.2.1-.3.3-.3.5-.1,0-.3,0-.4.1-.1.2,0,.3,0,.4,0,0,0,0,0,0,0,0,0,0-.1.1,0,0-.1.1-.2.2,0,0,0,.2,0,.2,0,0,0,0,0,0-.1,0-.2,0-.3.3h0c-.1.3-.2.5-.3.5,0,0-.1,0-.2,0,0,0,0,.2,0,.2,0,0,0,0,0,0-.2,0-.3-.1-.4,0,0,0,0,0-.1.2,0,.2.1.3.3.3,0,0-.2,0-.2,0,0,0,0,.1,0,.2,0,.1.1.2.2.2,0,0,0,0-.1.1,0,.1,0,.2,0,.3,0,0,0,0,0,0,0,0,0,0,0,0,0,0,0,0-.1.2h.1c0,0-.2,0-.2,0,0,.1-.1.3-.2.4,0,0,0,.2,0,.3h0c0,0,0,.1,0,.2,0,0,0,0,0,0,0,0-.1.1-.1.2,0,.1,0,.2,0,.3h.1q0-.1,0-.1h0c0,.2,0,.4,0,.5,0,.3,0,.6,0,.8s0,.7,0,1c0,.1,0,.2.2.3,0,0,0,0,.1,0,0,0,.2,0,.2,0,.3-.2.2-.6,0-.9h0c0-.1,0-.3,0-.5h0c0-.2,0-.3,0-.4,0-.2,0-.3-.2-.3,0,0,0,0,0-.1,0,0,0,0,0-.2,0,0,0-.1-.1-.2,0,0,0,0,0,0,0-.2,0-.4.2-.6,0,0,0-.1,0-.2,0-.2.1-.4.3-.6.1-.2.2-.4.3-.6.1-.3.3-.6.5-.9.2-.3.5-.8.8-1.2.1-.2.3-.5.4-.7,0-.1.1-.2.2-.3h0c0-.2.2-.3.3-.5.1-.2.2-.3.4-.6l.2-.2c.8-1,1.7-2,2.3-3.3.1-.3.3-1,.3-1.3,0-.2,0-.3-.1-.4,0,0,0,0,0,0,0,0,0,0,.1-.1,0,0,.2-.1.3-.3,0-.1,0-.2,0-.3,0,0,0,0,0-.1,0-.2.1-.8.2-1.1,0,0,0-.1.1-.2,0,0,0-.1.1-.3,0-.1,0-.3,0-.4,0-.1,0-.2,0-.4,0-.3,0-.9,0-1.2,0-.1,0-.2,0-.3,0,0,0,0,0,0,0,0,0,0,0-.2h0c.1-.7.2-1.3,0-2.1ZM30.7,6.9h0s0,0,0,0h0ZM30,5.3h0s0,0,0,0h0ZM24.9,9.7s0,0,0,0h0s0,0,0,0ZM29.6,9.7c0-.1,0-.2-.1-.4,0,0,0,0,0-.1,0,0,0-.1,0-.2,0-.1-.1-.2-.2-.2,0,0,0,0,0,0,0,0,0-.1,0-.2h0c0-.2,0-.3,0-.3,0,0,0-.1-.1-.2,0,0,0,0,0,0,0-.2-.2-.7-.2-.9,0-.1,0-.2,0-.3,0,0,0,0,0-.2,0-.1,0-.2,0-.2h0c0,0,0,0,0,0h0c.1-.2.2-.3.4-.4.2,0,.5,0,.7,0,0,0,0,0,0,0,0,0,0,.1.1.2h.1c.1.2.3.4.4.5,0,0,0,0,0,.1h0c0,.2,0,.3.2.4h0c0,.2.2.2.2.3-.1.1-.2.3-.2.4,0,.1-.1.6,0,.9,0,0,0,0,.1.1,0,0,0,0,0,0,0,0,0,.2,0,.2-.1,0-.3,0-.4,0h0s0,0,0,0c0,0,0-.2-.2-.2,0,0-.2,0-.2,0-.1,0-.3.2-.4.4ZM37.4,16.3h-.1q0,0,0,0h.1c0,0,0,0,0,0Z"/>
  <path class="st0" d="M36.4,21.8v.2c-.1.1-.1.2-.1.3,0,0,0,.1,0,.2,0,0,0,0,0,0,0,0-.1.1-.2.2,0,0,0,.1,0,.2h0c0,0,0,0,0,0,0,0,0,.2,0,.2-.1.2-.4.5-.5.6,0,0,0,0,0,0,0,0-.1,0-.2,0-.2,0-.3.2-.3.3h0s0,0,0,0c0,0-.2.1-.2.3s0,.1,0,.2c.1,0,.3,0,.4,0,0,0,.1,0,.2,0,0,0,0,0,.1,0,.1.1.3.2.4.2h0c0,0,.1,0,.2-.1,0,0,0-.2,0-.2,0-.1-.1-.2-.2-.2,0,0,0,0,0,0,0,0,0,0,.1-.2,0,0,0,0,.1-.1,0,0,0-.1.1-.2h0c0-.2,0-.2.1-.3.1-.2.2-.5.2-.7,0,0,0,0,0-.2,0,0,0,0,0,0,0,0,.1,0,.2-.2,0,0,0,0,0,0h0c0-.1.1-.3.2-.4,0,0,0,0,0,0,0,0,.2,0,.3,0,0,0,.1-.1.1-.2,0,0,0-.2,0-.2,0,0-.2-.1-.3-.1,0,0,0,0,0,0,0,0,0,0,0-.1,0,0,0-.2,0-.3,0-.1,0-.2-.2-.2,0,0,0,0,0,0,.1,0,.2-.1.2-.2,0-.2,0-.4-.2-.6,0,0,0,0,0-.1,0,0,0,0,0-.1,0-.1,0-.3-.2-.4h0s0,0,0,0c.2-.1.1-.3,0-.5,0,0,0,0,0,0h0s0,0,0,0c0,0,0-.1,0-.2,0,0,0-.1,0-.2,0,0,0-.1,0-.2,0,0,0,0,0,0,0-.2.1-.5,0-.6,0,0-.1-.1-.3-.1-.4,0-.4.5-.4.7,0,0,0,0,0,0,0,0,0,0,0,0,0,0,0,.1,0,.1,0,0,0,.1,0,.2h0s0,0,0,0c0,0,0,.5.2.7,0,0,0,0,.2.1-.1,0-.2.1-.2.2h0s0,0,0,0c0,.2,0,.3.1.4h.1c0,0,0,0,0,0,0,0,0,0,0,0,0,0,0,0,0,0h0c0,.2,0,.4.3.5,0,0,0,0,0,0,0,0,0,0-.1.1,0,.1-.2.4-.3.7ZM36.2,23.7h0s0,0,0,0Z"/>
  <path class="st0" d="M32.4,12s0,0,0-.2c0-.3-.1-.7-.4-.9-.1,0-.2-.1-.3,0-.1,0-.2,0-.3.1,0,0,0,.2,0,.2,0,0,0,0,0,.1,0,.2,0,.3.2.5h0c0,.2.1.4.2.5,0,0,0,.1,0,.2,0,.1,0,.3.2.4,0,.2,0,.4,0,.5,0,0,0,0,0,0t0,0c0,0,0,.1,0,.2v.2c0,.1,0,.3.1.4,0,.1,0,.3.2.5h0c0,.2.2.5.2.6,0,.1,0,.2,0,.2,0,0,0,.1,0,.2,0,.3,0,.6.1.9v.2c0,.3.1.6.2.9,0,.2,0,.3,0,.4,0,.1-.1.3,0,.5,0,.3.4.4.6.5,0,0,.2,0,.2.1.1.1.5.3.8.3s0,0,.1,0h0c.1,0,.2-.1.2-.2,0-.3-.3-.4-.5-.5,0,0-.1,0-.1,0-.1,0-.2-.2-.2-.3h0c0,0,0-.2,0-.3,0-.1-.1-.2-.2-.2,0,0,0,0,0-.1,0,0,0-.1,0-.2-.1-.5-.3-1.1-.3-1.6,0,0,0,0,0-.2h0c0-.2,0-.3,0-.4,0-.1-.1-.2-.1-.2,0,0,0,0,0,0,0-.2-.2-.6-.2-.8,0,0,0-.1,0-.2,0,0,0,0,0-.2,0,0,0-.2-.1-.2h0c0,0,0-.1,0-.1,0,0,0-.2,0-.3,0-.1-.1-.2-.2-.2,0,0,0,0,0-.1,0-.1,0-.3,0-.4h0s0,0,0,0c0,0,0,0,0,0,0-.3,0-.6,0-.9Z"/>
  <path class="st0" d="M34.6,15.2c-.2-.2-.5-.1-.8,0,0,0,0,0,0,0,0,0-.2,0-.3.1,0,.1,0,.3,0,.5h0c0,.1,0,.2,0,.4,0,0,.1.2.3.2.2,0,.4,0,.5-.2,0,0,0-.2,0-.2,0,0,0,0,0,0,0,0,.2,0,.2-.2h0s0,0,0,0h0c0-.2,0-.3,0-.4Z"/>
  <path class="st0" d="M33.3,11.6c0,0-.1,0-.2,0,0,0,0,0-.1,0,0,0,0,0,0,0-.1,0-.4,0-.4.2,0,0,0,.2,0,.3,0,0,.1.2.2.2h0s0,0,.1,0c.2,0,.3,0,.5-.1h0s0,0,0,0c0,0,0,0,0,0,0,0,.3.1.5,0,0-.1.1-.2,0-.3-.1-.2-.6-.3-.7-.3Z"/>
  <path class="st0" d="M33.1,27.5c0-.1,0-.3,0-.5l.3-.2h-.6c-.1,0-.2,0-.3.2h-.2c0,.1.1.1.1.1,0,0,0,0,0,0-.1.2-.2.6-.1.8,0,.1.2.2.3.2,0,0,.2,0,.3-.2,0,0,.2-.2.2-.4Z"/>
  <path class="st0" d="M29.7,24.9h0s0,0,0,0c0,0,0,0,0,0,0,0,0,0,0,0h0c.2,0,.6-.4.9-.6h0c0,0,0,0,.1,0,0,0,.1,0,.2-.1.2-.1.1-.3.1-.3,0-.1-.2-.2-.4-.1-.1,0-.2.1-.2.2,0,0,0,0,0,0,0,0-1.2.4-1.2.8,0,0,0,0,0,0h0s0,0,0,0l-.2.2h.4Z"/>
  <path class="st0" d="M27.3,10.8c0,0,.1,0,.2,0,.2,0,.4,0,.5-.1.1,0,.2-.2.1-.3,0,0-.1-.2-.2-.2.1-.2,0-.3,0-.4,0-.1-.3-.1-.5,0-.1,0-.2.2-.2.3,0,0,0,.1,0,.2-.2,0-.3.2-.3.4h.1s-.1,0-.1,0c0,0,0,.2.2.2Z"/>
  <path class="st0" d="M30.5,13.3v.4c.1,0,.1,0,.2.1,0,0,0,0,0,.1,0,.1.1.2.2.2,0,0,.3,0,.4,0s.3,0,.4,0c0,0,.2-.1.2-.2,0-.1,0-.2-.1-.3h0c0,0,0,0,0,0,0,0,0,0,0,0,0,0,0,0,0,0,0,0,0-.2,0-.2,0,0-.2,0-.3,0,0,0,0,0,0-.1,0-.1,0-.2-.1-.2-.1,0-.3,0-.4,0h0c0,.1,0,.2,0,.3,0,0,0,.1.2.2,0,0,0,0,0,0l-.2-.2Z"/>
  <path class="st0" d="M28,12.9c-.1,0-.2.1-.2.2,0,.1,0,.3,0,.5,0,0,.2.1.3.1s0,0,.1,0c.1,0,.2-.1.2-.2,0-.2-.1-.4-.2-.5,0,0-.2,0-.3,0Z"/>
  <path class="st0" d="M31.8,36h0s-.1,0-.1,0c-.1,0-.2.1-.2.2,0,0,0,0,0,.1,0,0,0,0,0,0h0s0,0,0,0c0,0-.2,0-.2.2,0,.2,0,.3.2.3,0,0,.1,0,.2,0s.1,0,.1,0c0,0,.1-.2.1-.3.1,0,.3,0,.5,0h0s0,0,.1,0c0,0,.2,0,.2-.1,0,0,0-.2,0-.2,0,0-.4-.2-.7-.2Z"/>
  <path class="st0" d="M34.2,25.2c0,0,0-.2,0-.2,0,0,0,0-.2-.1h0c-.1,0-.3,0-.4,0,0,.1,0,.3,0,.4,0,0,0,0,0,0,0,0,0,0,0,0-.3,0-.5.2-.6.3-.1.1-.4.4-.3.7,0,.2.1.3.2.3h0c.2,0,.3-.2.4-.3h0c.2-.3.4-.5.4-.7,0,0,0-.1,0-.2,0,0,0,0,0,0,0,0,.2,0,.3-.3Z"/>
</svg>