<?xml version="1.0" encoding="UTF-8"?>
<svg id="Layer_2" xmlns="http://www.w3.org/2000/svg" version="1.1" viewBox="0 0 48 48">
  <!-- Generator: Adobe Illustrator 29.8.1, SVG Export Plug-In . SVG Version: 2.1.1 Build 2)  -->
  <defs>
    <style>
      .st0 {
        fill: #d5d4d1;
      }
    </style>
  </defs>
  <path class="st0" d="M23.8,40.5h0c-.3,0-.5.2-.6.5,0,.3-.1.7.1.9,0,0,0,0,.1,0s0,0,0,0c.3,0,.4-.6.4-.6h0c0-.3.1-.6,0-.7,0,0,0,0-.2-.1Z"/>
  <path class="st0" d="M23.6,44.7h0c-.1,0-.2.1-.3.3,0,.1,0,.5,0,.6,0,.3.2.4.3.4h0c.2,0,.3-.2.4-.4,0-.3,0-.6-.1-.8,0-.1-.2-.2-.2-.1Z"/>
  <path class="st0" d="M24.5,40.2c-.1,0-.3-.1-.4,0-.2.2,0,.4,0,.5,0,0,.1.1.2.1,0,0,0,0,0,0,0,0,.1,0,.2,0h0c0,0,0-.1.1-.2,0-.1,0-.2-.2-.3Z"/>
  <path class="st0" d="M23.7,42.8s0,0,0,0c.1,0,.2-.2.2-.3,0-.2-.2-.3-.4-.3s-.2,0-.2.1c0,.1,0,.3,0,.4,0,0,.1,0,.2,0Z"/>
  <path class="st0" d="M22.8,40.6h0c-.1,0-.2,0-.3.2,0,.1,0,.2,0,.3,0,0,0,0,0,0,0,0,.1,0,.2,0s.1,0,.2,0c.1,0,.2-.2.1-.3,0-.2-.2-.3-.4-.3Z"/>
  <path class="st0" d="M17.8,2.6h0c0,0,0,0,0,0h0s0,0,0,0c.5,0,.9-.1,1.3.3.2.2.2.5.2.8,0,0,0,.1,0,.2,0,0,0,.1,0,.1,0,0,0,.1,0,.3,0,.1.1.2.2.2h0c.2,0,.5-.3.5-.5,0-.2,0-.3,0-.5.1,0,.3,0,.4,0,.5,0,.8-.2,1.2.2.1.1.2.5.2.7,0,0,0,.1,0,.2,0,0,0,.1,0,.1,0,0,0,.1,0,.3,0,0,.1.2.2.2h0c.2,0,.5-.3.5-.5,0-.2,0-.4,0-.6h0c0-.3-.1-.6-.1-.6-.1-.4-.4-.6-.6-.8-.3-.2-.8-.1-1,0-.2,0-.2.1-.2.2,0,0,0,0,0,0,0,0,0,0,0,0-.1,0-.2.1-.3.2,0-.1,0-.3-.1-.4-.1-.4-.4-.6-.6-.8-.3-.2-.8-.2-1-.1-.2,0-.2.1-.2.2,0,0,0,0,0,0,0,0,0,0,0,0-.2,0-.4.2-.5.5v.2s.1,0,.1,0c.2,0,.3,0,.5,0Z"/>
  <path class="st0" d="M9.5,36.1c.1,0,.2,0,.3-.2,0-.1,0-.2,0-.3,0,0,0,0,0-.1,0-.1-.1-.3-.3-.4-.1,0-.2-.2-.3-.3,0,0,.1,0,.2,0,.1,0,.2,0,.2-.2,0,0,0-.1-.1-.1,0,0-.2,0-.3-.3,0-.1-.2-.2-.3-.2,0,0-.1,0-.2-.2,0-.2-.3-.3-.4-.3,0,0-.1,0-.1,0,0,0,0,0,0-.2,0,0,0-.2,0-.2,0,0-.1-.1-.2-.1,0,0,0,0-.1,0,0,0,0-.2-.1-.3,0-.2-.1-.4-.2-.5,0-.1-.2-.2-.3-.2,0,0-.1,0-.2-.1,0,0,0-.2-.1-.3,0-.1-.1-.3-.2-.4,0-.1-.2-.1-.3-.2-.1,0-.2,0-.2,0,0-.2,0-.3,0-.5h0c0-.2-.1-.4-.2-.5,0,0-.1-.1-.1-.2,0-.3-.2-.4-.5-.6,0,0,0-.2,0-.3,0,0,0-.2,0-.3,0-.1-.2-.2-.3-.2,0,0,0,0-.1,0,0,0,0,0,0-.1,0,0,0-.1,0-.2,0,0-.1-.1-.2-.2,0,0,0,0,0,0,0,0,0,0,0,0,0,0,0-.1,0-.2,0-.1,0-.2-.1-.2,0,0,0,0,0,0,0,0,0-.3.1-.5,0,0,0-.2,0-.2,0-.1,0-.2,0-.2,0,0,0,0,0,0,0,0,0,0,0,0,0,0,0,0,0-.2,0,0,0-.2-.1-.2,0,0,0,0,0,0,0,0,0,0,0,0,0,0,0-.1,0-.2,0,0,0-.2,0-.2,0-.1,0-.3,0-.4,0,0,0-.2,0-.3,0-.1,0-.3,0-.4,0-.1,0-.2-.1-.3,0,0,0,0,0,0,0,0,0-.2.1-.3,0-.1.1-.2.1-.3,0,0,0-.1,0-.2,0,0-.1,0-.2,0,0,0,0-.1,0-.2,0-.2.2-.4.1-.6,0-.1-.1-.3-.2-.5-.1-.2-.3-.5-.2-.6,0-.1.1-.2.2-.3.1,0,.2-.2.3-.3,0-.2,0-.3-.2-.3,0,0,0,0,0-.1,0,0,0-.1,0-.2,0-.1,0-.2-.1-.2,0,0,0,0,0,0,0,0,0,0,0,0,0,0,.1,0,.1-.2,0,0,0-.2,0-.2,0,0,0-.1,0-.2,0-.1.2-.3.3-.5h0c0-.2.2-.4.2-.5,0-.2.1-.5.2-.7h0c0-.1,0-.2,0-.3,0,0,0-.1,0-.2,0,0,0,0,0-.2,0-.2,0-.7-.4-.7,0,0-.1,0-.2,0-.2.1-.2.4-.3.7,0,0,0,.2,0,.2,0,0,0,0,0,0,0,.5-.4,1.1-.6,1.6h0c0,.2-.2.4-.2.5-.2.5-.2,1-.2,1.4,0,0,0,.1,0,.2,0,.3,0,.4.1.4,0,0,0,0,0,.1,0,0,0,0,0,0,0,0,0,0,0,.2,0,.1,0,.2.1.2,0,0,0,0,0,0,0,0,0,.2-.1.3,0,.1,0,.2,0,.3,0,.1,0,.2,0,.3,0,0,0,0,0,.1,0,0,0,0,0,.1,0,0,0,.2,0,.3,0,.1,0,.2,0,.4h0c0,.1,0,.2,0,.3.1.8,0,1.7,0,2.5h0c0,1.8.3,2.8,1.3,4.3,0,0,0,.1.1.2,0,.1.1.2.2.4,0,0,.1.1.2.2,0,0,.1,0,.2.2,0,.1.1.2.2.4.2.3.4.7.6,1,.1.1.2.3.3.4h0c.2.3.3.5.5.7.1.2.3.4.5.6.2.2.4.4.5.6,0,.1,0,.2,0,.2,0,0,0,.1,0,.2,0,.1.2.1.2.2,0,0,0,0,0,0,0,0,0,0,0,.1,0,0,0,.1,0,.2h0c.1.3.3.6.6.6h0Z"/>
  <path class="st0" d="M16.7,11.1s-.1,0-.2,0c-.1,0-.3-.1-.5,0,0,.1,0,.2,0,.3,0,0,0,0,0,.1,0,0-.2,0-.3,0-.2,0-.3,0-.4,0,0,0,0,.1-.1.2,0,.1,0,.2.1.3.2.2.7.2.9.1,0,0,.1,0,.2-.1.2,0,.4-.2.4-.1,0,0,0,0,0,.2,0,0-.1.2-.1.3,0,.1,0,.2,0,.2,0,0,0,0,0,.2h0c0,.3,0,1-.3,1.1,0,0,0,0-.1.1-.1.1-.3.2-.3.4,0,0,0,.2.1.3,0,0,.2.1.2.2.1,0,.2.2.2.3,0,0,0,.1,0,.1,0,0,0,0,0,.1,0,0,0,0,0,0s0,0,0,0c0,0,0,0,0,0,.2,0,.3-.5.2-1.3,0,0,0,0,0-.2,0,0,.1-.1.1-.2.1-.5.2-1,.2-1.5v-.4c0,0,0-.1,0-.2,0,0,0-.1,0-.2,0,0,0-.2,0-.2,0,0,0-.1,0-.2,0-.1,0-.2.2-.3,0-.1.2-.2.3-.4.2-.4.4-1.3.5-1.7,0,0,0,0,0-.1,0,0,.1-.2.1-.3,0,0,0-.2,0-.3,0-.1,0-.2,0-.3,0,0,0-.1,0-.2,0,0,.1-.1.2-.3,0-.1,0-.2,0-.4h0c0-.2,0-.3.1-.5,0-.2.3-.7.3-.9,0,0,0,0,0-.2,0-.2.1-.3,0-.5,0,0-.2-.1-.3-.1s0,0,0,0c-.1,0-.2,0-.3.2,0,.1,0,.2,0,.3,0,0,0,0,0,.2,0,.2-.4.9-.6,1.1-.1.1-.1.2-.2.2,0,0,0,0,0,0,0,0,0,0-.1,0,0,0-.2,0-.3,0,0,0-.1.1-.1.2t0,0s-.1,0-.2,0c-.2,0-.4,0-.5,0,0,0-.1.1-.1.2,0,0,0,.2,0,.2.2.2.6.2,1,.2.1,0,.3,0,.4,0,0,0,0,0,0,0,0,0,0,.1,0,.2,0,0,0,.1,0,.2,0,0,0,.1,0,.2,0,0,0,0,0,0,0,0,0,0,0,0,0,0-.1,0-.2.2,0,.1,0,.2,0,.2,0,0,0,0,0,0,0,0,0,0,0,.1,0,0,0,.2,0,.3,0,0-.1.1-.2.2-.1.1-.3.2-.3.4,0,.1,0,.2.1.3,0,0-.1.2-.2.2,0,0-.1,0-.2.1-.1.1,0,.3,0,.3,0,0,0,0,0,0,0,0-.2.3-.4.3Z"/>
  <path class="st0" d="M22.1,5.4c0,0-.2-.1-.3-.1-.1,0-.2,0-.3.2,0,.1,0,.2,0,.2,0,0,0,0,0,.2,0,0,0,.1,0,.3-.1,0-.2.2-.2.3v.2s0,0,0,0c0,.2-.2.3-.2.3-.1.1-.1.2-.2.2,0,0,0,0,0,0,0,0,0,0-.1,0,0,0-.2,0-.3,0,0,0-.1.1-.1.2,0,0,0,0,0,0,0,0-.2,0-.2,0-.2,0-.4,0-.5,0,0,0-.1.1-.1.2,0,0,0,.2,0,.2.2.2.5.1.9.1.1,0,.3,0,.4,0,0,0,0,.2,0,.2,0,0,0,.1,0,.2,0,0,0,.1,0,.2,0,0,0,0,0,0,0,0,0,0,0,0,0,0-.1,0-.2.2,0,.1,0,.2,0,.2,0,0,0,0,0,0,0,0,0,0,0,.1,0,0,0,.2,0,.3,0,0-.1.1-.2.2-.1.1-.3.3-.3.4,0,0,0,.1,0,.2,0,0,0,0,.1,0,0,0-.1.2-.2.2,0,0-.1,0-.2.1-.1.1,0,.3,0,.3,0,0,0,0,0,0,0,.1-.2.3-.4.3,0,0-.1,0-.2,0-.1,0-.3,0-.5,0,0,.1,0,.2,0,.3,0,0,0,0,0,.1,0,0-.2,0-.3,0-.2,0-.3,0-.4,0,0,0,0,.1-.1.2,0,.1,0,.2.1.3.2.2.7.1.9,0,0,0,.1,0,.2-.1.1,0,.4-.2.4-.2,0,0,0,0,0,.2,0,0-.1.2-.1.3,0,.1,0,.2,0,.2,0,0,0,0,0,.2h0c0,.3,0,1-.3,1.2,0,0,0,0-.1.1h0c-.1.1-.3.3-.3.4,0,0,0,.2.1.3,0,0,.1.1.2.1h0c.1.1.2.2.3.3,0,0-.1,0-.2,0,0,0-.2.1-.2.2,0,.2.2.4.3.7,0,0,0,0,.1.1,0,.1.2.2.2.2,0,0,.2.1.4.4l.2.3c.5.8,1.6,2.2,2,2.5,0,0,.1,0,.2,0s0,0,0,0c0,0,.2-.2-.7-1.6-.1-.2-.5-.6-.9-1-.3-.4-.7-.8-.8-.9,0,0-.1-.2-.2-.3,0-.1-.1-.3-.2-.4.3-.2.1-1.1,0-1.3,0,0,0-.1,0-.2,0,0,.1-.1.1-.3,0-.5.1-1,.2-1.6,0-.1,0-.3,0-.4,0,0,0-.1,0-.2,0,0,0-.1,0-.2,0,0,0-.2,0-.2,0,0,0,0,0-.2,0-.1.1-.2.2-.3,0-.1.2-.2.3-.4.2-.3.4-1,.5-1.5v-.2c0,0,0,0,.1-.1,0,0,.1-.2.1-.3,0,0,0-.2,0-.3,0-.1,0-.2,0-.3,0,0,0-.1,0-.2,0,0,.1-.1.2-.2,0-.1,0-.3.1-.4,0-.2,0-.3.1-.4,0-.1.1-.3.2-.5.4-.1.8-.1,1.1.2.1.1.1.4,0,.6,0,0,0,.1,0,.2,0,0,0,0,0,.1,0,0-.1.1,0,.3,0,0,0,.2.2.2.2,0,.5-.3.6-.4,0-.2,0-.4,0-.6v-.2s-.1-.4-.1-.4c-.1-.3-.3-.6-.6-.7-.3-.1-.7-.1-.9,0,0,0,0-.2,0-.3Z"/>
  <path class="st0" d="M14,13.2s.1,0,.2-.2c.1-.2.4-.7.3-1,0-.1,0-.2-.2-.2-.1,0-.2,0-.3,0-.1,0-.1.2-.2.3,0,0,0,.1,0,.1,0,0,0,.1-.1.2h0c0,.1-.1.2-.2.3,0,0,0,0,0,0-.1.1-.3.2-.3.4,0,.1,0,.2,0,.2,0,0,0,0,0,0,0,0,0,.2,0,.3,0,.1-.1.3-.1.4,0,0,0,0,0,.2,0,.1,0,.2,0,.3,0,0,0,0-.1,0,0,0-.2,0-.2.2,0,0,0,.1,0,.2,0,0,.1,0,.2.1,0,0,.1,0,.1,0,0,0,0,.3,0,.5,0,0,0,0,0,0,0,0,0,0,0,.2,0,0,0,.1,0,.2,0,0,0,0,0,.1,0,0,0,0,0,.1,0,.1-.2.3-.2.5,0,.1,0,.2.1.2,0,0,0,0,0,0,0,0-.3.1-.4.2-.2,0-.4.1-.5.3,0,0,0,0,0,.1,0,0,0,.1,0,.2,0,0,.1.1.2.2,0,0,.1,0,.2,0,.2,0,.5,0,.8-.1.1,0,.3,0,.3,0,.1,0,.2,0,.2,0,0,0,.1,0,.3,0h0c.2,0,.3-.1.3-.3,0-.1,0-.3-.1-.4,0,0-.2,0-.4-.1,0,0-.3,0-.4-.1,0,0,.1-.1.2-.2.1,0,.3-.2.3-.5,0-.2,0-.5,0-.7,0-.2,0-.4,0-.5,0-.2,0-.4,0-.6,0-.1,0-.3,0-.4,0-.1,0-.3,0-.4,0-.1,0-.2,0-.3,0-.1,0-.2.2-.2Z"/>
  <path class="st0" d="M11.4,38.5h0c-.2,0-.4,0-.5,0,0,0,0,0,0,0,0,0,0,0,0,0,0,0,.2-.2.1-.3,0-.1-.1-.2-.2-.3,0,0-.1,0-.1-.1,0-.2-.2-.4-.3-.6,0,0,0,0,0,0,0,0,0-.1,0-.2,0-.1-.1-.2-.2-.2,0,0,0,0,0,0,0,0,0,0,0-.1,0,0,0-.2-.1-.3-.2-.2-.4-.2-.6-.1,0,0-.1,0-.1.2,0,.1,0,.3.1.5,0,0,0,0,0,.2,0,0,0,.2,0,.3,0,0,.1.1.2.1,0,0,0,0,0,0,0,0,0,.3.1.4h0c0,.2,0,.3,0,.4,0,.1,0,.2.1.2,0,0,0,0,0,.1,0,0,0,.2,0,.3,0,.2,0,.4,0,.5,0,.1.1.2.2.2,0,0,0,0,0,.1,0,0,0,0,0,0,0,0,0,.1,0,.3,0,.1,0,.4,0,.6,0,.2,0,.4,0,.5,0,.3,0,.5,0,.8,0,0,0,.1,0,.2,0,.2,0,.3.1.5,0,0,.2.1.3.1s0,0,.2,0c.2,0,.3-.2.3-.4,0-.2,0-.2,0-.2,0,0,0,0,0,0,0,0,.1-.1.1-.2,0-.1,0-.2-.2-.2,0,0,0,0,0,0,0,0,0,0,0,0,0,0,.1-.2,0-.3,0,0-.1-.2,0-.3,0-.2,0-.2,0-.3,0,0,0,0,0,0,0,0,0,0,0-.1,0,0,0-.1,0-.2,0-.1,0-.2,0-.4,0,0,0,0,0-.1,0,0,0-.1-.1-.2,0,0,0,0,0,0,0,0,.1,0,.2,0,.1,0,.3-.1.3-.3,0-.2-.1-.2-.3-.3,0,0,.2,0,.2,0,.3,0,.6,0,.7-.2,0,0,0-.1,0-.2-.1-.3-.5-.2-.8-.2Z"/>
  <path class="st0" d="M23.3,9.9c0,0,0-.4,0-.5-.1-.2-.2-.2-.3-.2-.3,0-.4.7-.4.7,0,.1,0,.2,0,.2h0c0,0,0,.1,0,.2,0,0,0,.1,0,.2,0,0,0,.2,0,.2,0,0,0,0,0,.1,0,0,0,0,0,.1,0,0,0,0,0,.1,0,.4-.2.9-.2,1.2h0c0,.3,0,.4,0,.6,0,.3,0,.5,0,.7,0,.1,0,.3,0,.4,0,.2,0,.5,0,.8,0,0,0-.2,0-.2h0c0-.4-.1-.5-.2-.5,0,0-.1,0-.2,0,0,0,0,0-.1,0,0,0-.2,0-.2.1-.1.2,0,.4,0,.7,0,0,0,0,0,0,0,.2.3.8.4,1.2,0,.2.1.3.1.4,0,.2.7,1.4,1.1,1.4h0c0,0,.2,0,.2-.3,0-.4-.2-1.1-.6-1.8,0,0,0,0,0,0h0c0-.3,0-.7,0-.9,0-.2,0-.3,0-.5,0-.1,0-.3,0-.4,0,0,0-.1,0-.2,0,0,0-.1,0-.2,0-.2,0-.6,0-.8,0-.1,0-.2-.1-.2,0,0,0,0,0,0,0,0,0,0,0,0,0,0,0,0,.2-.2,0-.2.1-.7.2-1.1h0c0-.2,0-.3,0-.4,0-.1,0-.2.1-.3,0,0,0-.1.1-.2,0-.1,0-.2,0-.3,0,0,0,0,0,0,0,0,0,0,0-.1,0,0,0,0,0-.2Z"/>
  <path class="st0" d="M4.8,13.6s0,0,0,0c0,0-.1,0-.1.2,0,0,0,.1.1.2.2.1.3.1.4,0,0,0,.2,0,.2,0,0,0,0,.1,0,.2,0,.2,0,.4.3.5,0,0,0,0,0,0,0,0,.2,0,.2-.1.2-.3.1-.9,0-1.1,0-.3-.2-.5-.3-.6,0,0-.2-.1-.2-.2,0,0,0,0,0,0h0q0-.2.1-.2c0,0,.2,0,.3,0,.2,0,.5,0,.6,0,0,0,0,0,0,0,0,.2.1.3.2.4h0c0,0,0,0,0,0,0,0,0,0,0,0,0,0,0,0,0,.1,0,0,0,0,.1.1,0,0,0,0,.1,0,0,0,0,0,.1,0,0,0,0,.1.2.3,0,0,0,.2.1.2,0,0,.1.1.2.1,0,0,0,0,0,0,0,0,0,0,0,.1,0,0,0,0,0,.2,0,0,0,0,0,.1,0,0,0,0,0,.1,0,.1.1.2.2.3,0,0,0,0,0,0,0,0-.1,0-.2.2-.1.2,0,.5,0,.8h0c0,.2,0,.2,0,.2,0,0,0,.1,0,.2,0,0,0,.2,0,.3,0,.2,0,.4,0,.5,0,0,0,.1,0,.2,0,.1-.1.2-.1.4,0,0,0,.1,0,.2,0,0,0,0,0,0,0,0,0,0-.1,0,0,0-.2,0-.3.1-.1.1,0,.3,0,.4,0,0,0,0,0,.1,0,0,0,0-.2.1-.1,0-.3.2-.3.3,0,.2,0,.4,0,.6,0,.2.2.1.2.1,0,0,0,.2,0,.3,0,0,0,.2,0,.2,0,0,0,0,0,0,0,0,0,0,0,.2,0,0,0,.1,0,.2,0,0,.1.2.2.3,0,0,0,.1,0,.2,0,.2,0,.3,0,.5,0,.2,0,.3.2.4,0,0,.1.1.1.1,0,0,0,0-.1.1,0,0-.2.1-.1.2,0,0,0,.1,0,.2,0,0,.1,0,.2.1.2,0,.4.2.4.3,0,0,0,0,0,.1,0,0,0,.2,0,.3,0,.1.2.2.3.2s0,0,0,0c0,0-.2.1-.2.2,0,0,0,.1,0,.2,0,0,.2,0,.3,0,0,0,.2,0,.3,0,.1,0,.6.4.9.7.1.1.2.2.4.3.1,0,.2.1.2.2,0,0,0,0,0,.1,0,0,0,.1,0,.2,0,.1.2.1.2.1,0,0,0,0,0,0,0,0,0,0,0,0,0,0,0,.2.2.3,0,0,0,0,.1,0,.1,0,.3,0,.4-.2.1-.1.1-.3,0-.4,0-.2-.2-.2-.3-.2h0s0,0,0,0c0,0,0-.1,0-.2,0-.1,0-.2-.1-.4-.2-.2-.5-.5-.7-.6-.1,0-.2,0-.3-.1,0,0,0,0-.2,0,0,0-.1-.1-.2-.2,0-.1-.2-.2-.3-.3-.2,0-.3,0-.3,0,0,0,0,0-.1,0,0,0,0,0,0,0h0s0,0,0,0c.2,0,.4-.2.4-.4,0-.2,0-.3-.2-.5,0,0,0,0,0-.2,0-.1-.2-.2-.3-.4,0,0-.2-.2-.2-.3,0,0,0-.2,0-.3,0,0,0-.1,0-.2,0,0-.1-.1-.2-.2,0,0,0,0,0,0,0,0,0,0,0,0,0,0,0,0,0-.2,0,0,0-.1,0-.1,0,0,0,0,0-.1,0,0,0,0,0,0,0,0,0-.2,0-.3,0-.1,0-.3-.1-.4,0-.2-.1-.3-.1-.5,0-.2,0-.3,0-.4h0c0,0,0,0,0-.1,0,0,0-.1.1-.2,0,0,.2-.2.2-.3,0-.1,0-.2,0-.3,0,0,0-.1,0-.2,0,0,0,0,0-.1,0,0,0-.2,0-.4,0,0,0-.1,0-.2h0c0-.3,0-.6,0-.7,0,0,0,0,.2,0,0,0,.2,0,.3-.1,0,0,0-.1,0-.2,0,0-.2,0-.3,0,0,0-.1,0-.1,0,0,0-.1-.2-.1-.3,0,0,0,0,0,0,0,0,.1,0,.2-.2,0,0,0-.1,0-.2,0,0,0,0,0-.1,0,0,0-.1,0-.2,0-.2.1-.3.2-.5,0-.3,0-.6.1-.9,0-.5,0-1,.2-1.5,0,0,0,0,0-.1,0,0,.1-.1.1-.3,0,0,0-.2,0-.2,0,0,0-.1,0-.1,0,0,0,0,0-.1,0,0,.1-.1.1-.2,0,0,0-.2,0-.2,0,0,0,0,0,0,0,0,0,0,0-.1,0,0,.1-.1.1-.2.3-.7.6-1.6.9-2.6,0,0,0-.1,0-.1,0,0,0,0,0-.1,0,0,0,0,.1-.1,0,0,.2-.1.3-.3,0-.1.1-.2.1-.3,0-.1,0-.3.2-.5.2-.4.8-1.3,1.2-1.8,0,0,0,0,0-.2,0,0,0-.1,0-.2.1,0,.4-.2.6-.2.2,0,.6,0,.8,0,0,0,0,0,0,0,0,0,0,0,0,0,0,0,0,.1,0,.2,0,0,.1,0,.2.1,0,0,0,0,0,0,0,0,0,0,0,0,0,0,0,.1,0,.2,0,0,.1.1.2.1,0,0,0,0,0,0,0,0,0,0,0,0,0,0,0,.3,0,.4s0,.1,0,.2c0,0,0,.2,0,.2,0,0,0,0,0,.1,0,0,0,0,0,.1,0,0-.1.1-.1.2,0,0,0,.2,0,.2,0,0,0,0,0,0,0,0,0,0-.1,0-.1,0-.4,0-.3.3h0c0,.2,0,.4,0,.5,0,0,0,0-.1.1,0,0-.1.1-.2.2,0,.1,0,.2,0,.3,0,0,0,0,0,.1h0c0,.2,0,.3-.1.4,0,0,0,0-.2,0,0,0-.2,0-.3,0-.2.1-.5.2-.6.2,0,0,0,0-.2,0-.2,0-.4-.2-.5,0,0,0-.1,0-.1.1,0,0,0,.1,0,.2,0,.1.3.2.8.3,0,0,.2,0,.3,0,.2,0,.5,0,.6,0,0,0-.1,0-.2,0,0,0-.1,0-.2,0-.2.1,0,.3,0,.4,0,0,0,0,0,0,0,0,0,0,0,0,0,0,0,.1,0,.2,0,0,0,.1,0,.2,0,0,0,0,0,0,0,0,0,0,0,.1,0,0-.1.2,0,.3,0,0,0,0,0,0,0,0,0,0-.1,0,0,0-.2,0-.2.1,0,0,0,.1,0,.2,0,.1.1.2.2.2,0,0,0,0,0,0,0,0,.1,0,.2,0,.1,0,.1-.2,0-.3,0,0,0,0,0,0,0,0,0,0,0,0,.1,0,.2,0,.3,0,.2-.1.2-.4.2-.6,0,0,0,0,0-.1,0,0,0,0,0-.1,0,0,.1-.1.2-.3,0-.1,0-.2,0-.4,0-.1,0-.3,0-.5,0-.4.4-1.1.6-1.5,0-.1.2-.3.3-.4.2-.2.4-.5.4-.8,0-.3,0-.6,0-.9,0-.3,0-.5,0-.7,0-.1,0-.2.1-.2,0,0,.2,0,.2-.2h0c0-.4.2-.7.3-.9,0,0,0-.1.1-.2,0,0,.2-.2.2-.3,0,0,0-.1-.1-.2,0,0-.1,0-.2,0-.2,0-.5.5-.5.6,0,0,0,0,0,0,0,0-.1,0-.2.2,0,0,0,.1,0,.2,0,.2,0,.3-.2.3-.1,0-.1,0-.2-.1,0,0,0-.2-.2-.3-.2-.3-.8-.6-1.3-.6-.5,0-.9.4-1.2.7-.3.3-.5.6-.7.9h0c-.1.2-.1.2-.1.3,0,0,0,0,0,.1,0,0,0,0,0,0,0,0-.1,0-.2.2-.2.3-.5,1.1-.6,1.3,0,.2,0,.3,0,.4,0,0,0,.1,0,.2,0,0,0,0,0,.1,0,0,0,0-.1.2,0,0,0,.2,0,.2,0,0,0,0,0,.1,0,0,0,0,0,0,0,0-.1,0-.2.2,0,.2-.2.5-.3.7,0,0,0,.2,0,.2,0,0,0,.1,0,.2,0,0,0,0,0,0,0,0-.1,0-.2.2,0,.1,0,.2,0,.2,0,0,0,.1,0,.2,0,0-.1.2-.2.4h0c-.1.2-.2.4-.3.6,0,.1,0,.2,0,.3,0,0,0,0,0,.1,0,0,0,0,0,0,0,0,0,.1,0,.2,0,0,0,.2,0,.2,0,0,0,0,0,.1,0,0,0,.1,0,.2,0,0,0,.2,0,.2,0,.2,0,.4,0,.5h0c0,.4,0,.8-.2,1.1,0,0-.1-.3-.2-.4,0,0,0-.1-.2-.2,0,0-.1,0-.1-.2,0,0,0-.1,0-.2,0-.1,0-.3-.2-.4,0-.1-.2-.2-.3-.2,0,0,0,0-.1,0,0,0,0,0-.1-.1,0,0,0-.1-.1-.2-.1-.1-.4-.3-.6-.2,0,0-.1,0-.2.1,0,0,0,0,0,0,0-.2-.3-.4-.5-.5-.7-.1-1.1.3-1.4.6-.4.5-.2,1,0,1.2,0,0,0,0,0,0ZM12.5,4.9h0s0,0,0,0h0Z"/>
  <path class="st0" d="M11.3,43h0c-.1,0-.2,0-.3.2-.2.2-.1.7-.1,1.1h0c0,0,0,.1,0,.2,0,.1,0,.2,0,.3,0,.1-.1.2,0,.4,0,0,0,0,0,0h0c0,0,0,.2,0,.2h0s0,0,0,0c0,0,0,0,0,0,0,0,0,0,0,0,0,0,.1,0,.2,0,.2-.1.4-.6.4-.8,0-.1,0-.6,0-.8,0,0,0-.1,0-.2,0-.1.1-.3,0-.4,0-.1-.2-.2-.3-.2Z"/>
  <path class="st0" d="M10.3,22h0c-.3,0-.8-.2-.9.2,0,0,0,.1,0,.2,0,.1.3.2.5.3,0,0,.2,0,.2,0,0,0,0,0,0,0h0c.2.1.4.3.6.3s0,0,.1,0c.2,0,.4-.3.4-.5,0-.1,0-.2,0-.3-.2-.2-.5-.2-.7-.2,0,0-.1,0-.2,0Z"/>
  <path class="st0" d="M12.1,13.9c.1,0,.3,0,.4,0,.2,0,.4,0,.5-.2,0-.1,0-.2,0-.4,0-.2-.4-.2-.5-.1,0,0-.1,0-.1.1,0,0,0,0,0,0,0,0,0,0,0,0,0,0,0,0-.1,0h0c-.3,0-.5,0-.6,0h0c0,0-.1,0-.1.2,0,0,0,.1.1.2.2.1.4.2.6.2h0Z"/>
  <path class="st0" d="M21.9,11c-.1-.1-.5-.2-.7,0-.1,0-.2.2-.2.3,0,.2.1.3.3.3,0,0,0,0,.1,0,.2,0,.5,0,.5-.2,0,0,0,0,0,0,0-.1,0-.2,0-.2,0,0,0,0,0,0Z"/>
  <path class="st0" d="M13.1,24.9c0,0-.2,0-.3.1h0c-.2.2-.2.5,0,.6,0,0,.2.1.3.1s.2,0,.3-.1c.2-.2.2-.4,0-.6,0,0-.2-.1-.3-.1Z"/>
  <path class="st0" d="M12.3,26.4c-.2,0-.3.2-.3.4,0,.2,0,.3.1.4,0,0,.1,0,.2,0s0,0,.1,0c.3-.1.4-.4.3-.6,0-.2-.2-.3-.5-.2Z"/>
  <path class="st0" d="M12.7,23.7h0c-.1,0-.2.1-.2.2,0,.1,0,.2.2.3,0,0,0,0,0,0h0c.1.1.3.2.4.2s0,0,0,0c0,0,.2,0,.2-.1,0-.1,0-.3,0-.4-.1-.2-.5-.4-.7-.3Z"/>
  <path class="st0" d="M22.2,9.2s0,0,0,0c.1,0,.2,0,.3-.2,0-.1.1-.3,0-.4,0,0-.1-.2-.4-.1-.2,0-.3.2-.3.4,0,.2,0,.3.2.3Z"/>
  <path class="st0" d="M4.9,14.2h0c-.2,0-.3.3-.3.5,0,.2.1.4.4.4h0c.1,0,.2,0,.2-.2,0-.2,0-.4,0-.6,0,0-.2-.1-.3-.1Z"/>
  <path class="st0" d="M13.1,27.2h0c0,0-.2,0-.3.2-.1.2,0,.5.1.5,0,0,0,0,.1,0,0,0,.2,0,.3-.2,0-.1.1-.3,0-.4,0-.1-.2-.2-.3-.2Z"/>
  <path class="st0" d="M12.3,23.3c-.1,0-.2,0-.3,0h0c-.2,0-.2.2-.1.4,0,0,.1.2.2.2,0,0,0,0,0,0,.1,0,.2,0,.3-.1,0,0,0-.2,0-.3,0-.1-.1-.2-.2-.2Z"/>
  <path class="st0" d="M28.5,28.4c-.1,0-.2,0-.3,0,0,0,0,0,0,0,0,0,0,0,0-.1,0,0,0-.2-.2-.3-.1-.2-.9-1.3-1.3-1.6-.2-.2-.3-.2-.3-.2,0,0,0,0-.1,0,0,0-.1-.2-.2-.4-.3-.6-.5-1-.8-1,0,0-.2,0-.2.1-.2.3,0,.6.2,1,0,0,0,0,0,0-.1,0-.2,0-.3,0-.1,0-.2.1-.2.2,0,.2,0,.3.2.5,0,.1.1.2.2.3,0,.2.2.6.4.9h0c.1.3.3.6.3.7,0,.2,0,.3,0,.4,0,0,0,.1,0,.2,0,.3.3,1,.7,1.1,0,0,.1,0,.2,0s.1,0,.2,0c.4-.3.3-.6.2-.8,0,0,0-.1,0-.2,0-.2-.2-.3-.4-.5-.1-.1-.3-.3-.3-.4,0,0,0-.2,0-.3h0c-.1-.3-.2-.6-.3-.9,0-.2-.2-.5-.3-.8,0,0,.2.2.3.3h.1c.2.4.5.8.7,1.2.1.2.3.5.4.6.2.3.4.3.6.3,0,0,.2,0,.2,0,0,0,0,.1,0,.2,0,0,0,.2,0,.4.2.2.5.6.8.7.1,0,.2.1.3.1s0,0,.1,0c.1,0,.2-.2.3-.3.2-.4-.7-1.2-.9-1.3Z"/>
  <path class="st0" d="M22.6,25.7c0,0,0-.2.1-.3.2-.4.3-.8,0-1,0,0-.2,0-.2,0-.3.1-.5.7-.6,1.1l-.3,1c-.3,1.1-.7,2.2-1,3.2,0,0,0,.2-.1.3h0c-.1.4-.3.8-.3,1,0,.2,0,.4.2.5,0,0,.1,0,.2,0s.1,0,.2,0c.2-.1.3-.3.3-.6,0,0,0-.2,0-.3.1-.4.2-.9.4-1.4,0-.3.2-.7.3-1.1,0-.4.1-.7.2-.9,0-.3.2-.6.4-.9.1-.2.2-.4.3-.6Z"/>
  <path class="st0" d="M30.5,21.8c.2,0,.3,0,.3,0,0,0,.2,0,.4,0,0,0,.1,0,.2,0,.2,0,.4,0,.5-.2,0,0,0-.2,0-.3,0,0,0-.2-.1-.2-.2-.2-.7,0-1,0,0,0-.2,0-.2,0-.4,0-.8,0-1.2,0-.6,0-1.2,0-1.7.1,0,0-.1,0-.2,0-.2,0-.3,0-.4.1,0,0,0,.2,0,.3,0,.2.3.3.7.3s.7,0,1-.1c.3,0,.7,0,1.1-.1.2,0,.5,0,.6,0Z"/>
  <path class="st0" d="M16.5,26.9c.5-.2,1-.4,1.4-.7.4-.2.8-.4,1.2-.6.2,0,.3-.3.3-.5,0-.2-.2-.3-.3-.3h0c-.4,0-.7.2-1,.4h0c-.1,0-.3.2-.4.3-.3.2-.6.4-.9.5h0c0,0-.3.1-.4,0,0,0-.7-.4-.9-.2,0,0-.1.1,0,.2,0,.2.2.4.5.5.2.1.5.2.6.2s.1,0,.1,0Z"/>
  <path class="st0" d="M15,20.8c0,.1.2.2.3.2.2,0,.4,0,.5,0,.1,0,.2,0,.4,0,.2,0,.3,0,.5,0h0c0,0,.2,0,.3,0,.6.1,1.7.4,2.5.4,0,0,.1,0,.2,0,.2,0,.5.1.7.1s.2,0,.3,0c0,0,.1-.1.1-.2,0,0,0-.2,0-.3-.2-.3-.7-.3-1.2-.4h-.2c-.1,0-.4,0-.7-.2-.6-.1-1.4-.3-1.7-.3-.3,0-.3,0-.4.1,0,0,0,0,0,0,0,0,0,0-.1,0,0,0,0,0-.2-.1-.3-.1-.6-.2-.8-.2,0,0,0,0-.1,0,0,0-.1,0-.1,0,0,0,0,0,0,0,0-.1-.2-.2-.3-.1h0s0,0,0,0c-.1,0-.2,0-.3.2,0,.1,0,.2.1.3,0,0,.1,0,.2,0s.1,0,.2,0c0,0,0,.2,0,.2ZM14.8,20.2h0s0,0,0,0Z"/>
  <path class="st0" d="M16,22.7h0c.1,0,.3,0,.4,0,.4,0,.8,0,1-.3,0,0,0,0,0,0,0,.1,0,.2.1.3,0,0,0,0,0,0h0c0,0,.1,0,.3,0h.1c0,0,.1,0,.2,0,.4,0,1.1,0,1.4-.1.3,0,.5-.2.5-.4,0-.2-.2-.3-.4-.3-.3,0-.8,0-1.1.1-.1,0-.3,0-.3,0-.2,0-.2,0-.3,0,0,0,0,0-.2,0-.2,0-.3.1-.3.3,0-.2,0-.3,0-.4-.1-.2-.4-.2-.9-.1-.1,0-.2,0-.3,0,0,0-.1,0-.3,0,0,0-.2,0-.3,0-.4,0-1.1.1-1.4,0-.4,0-1.3,0-1.5.5,0,.2,0,.3,0,.3,0,0,.1,0,.2,0,0,0,0,0,0,0,0,0,.2,0,.3,0s.3,0,.5,0h0c0,0,0,0,.1,0,.3,0,.7,0,1.1-.1.3,0,.6-.1.9-.1Z"/>
  <path class="st0" d="M22.6,32.2h0c.5,0,.5-.5.5-.6,0-.2,0-.3,0-.5,0-.2-.1-.3-.1-.6,0-.2,0-.7.1-1.1,0-.4.1-.8.1-1,0,0,0-.3,0-.6.2-1.1.4-2.2,0-2.4,0,0-.2-.1-.3,0-.7.2-.7,1.9-.6,3.5,0,.2,0,.4,0,.5,0,.4,0,.8,0,1.1,0,.3,0,.6,0,.9,0,.2,0,.5.1.7,0,0,.1,0,.2,0h0ZM22.6,32.1h0s0,0,0,0h0Z"/>
  <path class="st0" d="M29.6,25.4c.2,0,.3,0,.4-.2.1-.1.1-.3,0-.5-.1-.3-.5-.3-.7-.4-.1,0-.2,0-.3,0-.1,0-.2-.1-.4-.2-.1,0-.2-.2-.4-.2-.1,0-.3,0-.4,0-.1,0-.3,0-.4,0,0,0-.2-.2-.4-.3-.2-.1-.3-.3-.4-.3-.7-.2-.8-.2-.8,0,0,.1,0,.2.6.5,0,0,0,0,0,0h0c.2.1.5.3.7.4,0,0,0,0,0,.2,0,0,0,.2.2.3h0c.1.2.2.2.4.4h0c.3.2,1,.6,1.4.6,0,0,0,0,.1,0Z"/>
  <path class="st0" d="M20,22.9c0,0-.2,0-.2,0-.4,0-.7.2-1.1.3h0c-.7.2-1.5.3-2.2.6-.1,0-.2.2-.2.3h0c0,.1.1.3.4.3,0,0,0,0,0,0,.2,0,.5,0,.7-.2.1,0,.3,0,.5-.1.1,0,.3,0,.5-.1.6-.1,1.4-.3,1.7-.5,0,0,.1,0,.2-.1.3-.2.6-.3.5-.6,0,0,0-.1-.1-.2-.2,0-.4,0-.6.1h0ZM20,23h0s0,0,0,0h0Z"/>
  <path class="st0" d="M20.2,28.3c.2-.4.5-1.2.8-1.7,0-.2.3-.5.4-.8h0c.2-.4.4-.7.5-.9,0-.1.1-.2.2-.3,0-.1.2-.3.2-.4,0,0,0-.1,0-.2,0,0-.1,0-.2,0-.3,0-.8.4-1.5,1.2h0c-1.3,1.5-2.6,2.8-3.8,4,0,0,0,0-.1,0,0,0-.2,0-.3.2h0c0,.2-.2.4-.2.6,0,0,0,.2.2.2,0,0,.1,0,.2,0,.2,0,.4-.2.6-.4,0,0,.1-.1.2-.2.3-.3.6-.6.9-.9h0c.6-.7,1.3-1.3,1.9-1.9,0,0,.2-.1.3-.2,0,0,0,0,0,0h0c-.2.3-.3.6-.5,1,0,0,0,0-.1.2h0c-.2.3-.5.8-.2,1,.2.1.3.2.4.1.1,0,.2-.2.3-.4,0,0,0-.1,0-.2Z"/>
  <path class="st0" d="M23.7,34.5c0,0-.2-.1-.4-.1h0c-.2,0-.3,0-.4.2-.2.2-.1.6,0,.9,0,.1,0,.3,0,.3,0,.1,0,.2,0,.4,0,.4,0,.8,0,1.1,0,.1.2.2.3.2s.1,0,.2,0c0,0,0,0,0,0h0c.2,0,.2-.2.2-.4h0c0-.2,0-.4,0-.6,0-.2,0-.4,0-.6,0,0,0-.2,0-.3,0-.3.2-.8,0-1Z"/>
  <path class="st0" d="M20.5,15.1c0,0-.2,0-.2,0,0,0,0,0,0,0,0,0,0,0-.1,0,0,0,0,.1,0,.4,0,.3.4.8.7,1.3.1.2.2.3.3.4,0,.1.2.3.3.5h0c.3.6.6,1.2.9,1.4,0,0,.1.1.2.2.1.1.2.2.3.2h0c.1,0,.2,0,.3-.2.2-.3-.2-.7-.6-1.1-.1-.1-.3-.3-.3-.4-.2-.4-.4-.8-.6-1.2-.2-.4-.4-.9-.6-1.3,0,0-.2-.3-.4-.4Z"/>
  <path class="st0" d="M24.7,29.5c0,0,0-.1,0-.2,0-.1.1-.2,0-.4,0-.2,0-.4-.1-.6h0c0-.2-.1-.4-.1-.6,0-.1,0-.3,0-.4,0-.4,0-.9-.3-1.1,0,0-.2-.1-.3,0-.1,0-.1.3-.1.6h0c0,0,0,.1,0,.2,0,.4,0,2,.2,2.4,0,.2.1.3.2.4,0,0,0,0,0,0,0,0,0,.1,0,.2,0,0,0,.1,0,.2,0,.2,0,.6.2.7,0,0,.2.1.2.1h0c0,0,0,0,.1,0,0,0,0,0,0,0,0,0,.1,0,.2-.1h0c.2-.2,0-.6-.1-.8,0-.1-.1-.2-.1-.3Z"/>
  <path class="st0" d="M24.3,18.7h0c.1,0,.2-.1.3-.4,0-.3.2-.7.2-1.1,0-.4.1-.8.2-1.1,0-.1,0-.2.1-.3.2-.5.4-1,.2-1.4,0-.2-.1-.3-.2-.3,0,0-.2,0-.2,0,0,0,0,0-.1,0-.3.2-.3.8-.3,1.2,0,0,0,.1,0,.2,0,.1,0,.2,0,.2,0,0,0,.1-.1.4,0,.1,0,.4-.1.7,0,.5-.2,1-.2,1.4,0,.4,0,.6.2.6Z"/>
  <path class="st0" d="M28.7,19.9c.2-.3.2-.4.2-.5-.1-.2-.4-.2-.7-.1-.3,0-.8.4-1.5,1-.1.1-.7.8-.5,1,0,0,0,0,.1,0s.2,0,.2,0h.3c0-.1.2-.1.4-.2h.4c.8-.3,1.7-.5,2.5-.7,0,0,.1,0,.2,0,.3,0,.7,0,.8-.3,0,0,0-.2,0-.4-.2-.5-.6-.3-1-.2,0,0-.2,0-.3,0-.3,0-.7.2-1.1.3,0,0,0,0,0,0ZM26.7,21.1s0,0,0,0h0s0,0,0,0Z"/>
  <path class="st0" d="M28.1,22.5c-.1,0-.2,0-.3,0h-.2c-.5-.1-1-.2-1.2,0,0,0-.2.1-.1.2,0,0,0,.1.1.1,0,0,0,0,.1,0,0,0,.3.2,1.2.3,0,0,.1,0,.2,0,.2,0,.3,0,.5,0s.2,0,.3,0c.1,0,.2-.2.2-.3,0-.1,0-.2,0-.3-.2-.2-.6-.2-.9-.2h0Z"/>
  <path class="st0" d="M18.6,19.3c0,0-.1,0-.2,0,0,0-.1,0-.1,0,0,0,0,.1,0,.2h0c0,0,0,0,0,.2.2.3.8.5,1.2.7.1,0,.3.1.3.1.2,0,.4.2.6.3h0c.5.3.6.3.7.3s.1,0,.1,0c0,0,0-.2-.2-.4,0,0,0-.1,0-.3-.1-.6-1.4-1.5-1.6-1.6,0,0-.1,0-.2-.1,0,0,0,0-.2,0,0,0,0,.1-.1.3,0,.1.1.4.3.7-.4-.2-.7-.4-.9-.3Z"/>
  <path class="st0" d="M31.5,23.6c.1,0,.4-.2.3-.6,0-.1-.1-.2-.3-.2,0,0-1.2-.3-1.5,0,0,0,0,0-.1,0,0,0,0,0-.1,0,0,0,0,.1,0,.2h0c.1.3.8.6,1.3.6s.3,0,.3,0Z"/>
  <path class="st0" d="M28.1,16.6s0,0-.1,0c0,0-.2.1-.2.2,0,.1,0,.4,0,.5,0,0,.1,0,.2,0s0,0,.1,0h0c.3-.1.6-.5.7-.7h0c0,0,0-.2,0-.2,0,0,0-.2-.1-.2-.1,0-.2,0-.4,0-.1,0-.2.1-.2.2,0,0,0,0,0,.1Z"/>
  <path class="st0" d="M14.8,30.7h0c-.2,0-.3.2-.3.4,0,.3,0,.5.3.7,0,0,.2,0,.3,0s.2,0,.4-.1c.2-.1.2-.5.1-.7-.1-.3-.4-.5-.8-.4Z"/>
  <path class="st0" d="M29.8,26.3c-.3-.3-.8-.6-1.1-.6-.2,0-.3,0-.5,0-.2.2,0,.4,0,.5.1.1.6.6.9.7,0,0,.1,0,.2,0,.2,0,.3,0,.4-.2,0-.1,0-.3,0-.5Z"/>
  <path class="st0" d="M34,22c.3,0,.6-.2.6-.5,0-.1,0-.2-.2-.3-.1,0-.9-.2-1.2,0-.1,0-.2.2-.1.4,0,.3.4.5.7.5s0,0,0,0Z"/>
  <path class="st0" d="M24.2,15.8c0,0,0-.2,0-.3,0-.2,0-.4,0-.6h0s0-.1,0-.1c0-.3,0-.7,0-1.1,0-.2,0-.3,0-.4,0-.1,0-.3-.1-.4-.1,0-.3,0-.4.1-.2.2-.1.5,0,.8,0,0,0,.1,0,.2,0,0,0,.1,0,.2s0,.2,0,.3h0c0,.4,0,.6,0,.9h0c0,.6,0,1.3,0,1.9,0,0,0,0,0,0,0,0,0,.2,0,.3,0,0,0,0,.1,0s0,0,.1,0c.3-.1.3-1.2.3-1.7Z"/>
  <path class="st0" d="M25.6,20.6h0c.3,0,1.4-1.8,1.4-1.8,0,0,0-.1,0-.2,0-.1,0-.2.2-.2,0,0,.1,0,.2-.1.2,0,.4-.2.4-.4,0-.1,0-.2-.2-.3,0,0-.2-.2-.4-.2-.1,0-.2.2-.3.3,0,.1-.1.2-.2.4,0,.1-.2.3-.4.5-.6.6-1.3,1.4-.9,2,0,0,0,0,.1,0Z"/>
  <path class="st0" d="M19.6,25.1h0c.3,0,.6-.3.8-.5,0,0,.2-.1.4-.2.4-.2.8-.5.9-.7,0,0,0-.2,0-.2-.3-.4-1,.3-1.5.6,0,0-.1.1-.2.1,0,0-.1,0-.2.1-.2,0-.4.2-.4.4,0,0,0,.2,0,.3,0,.1.2.2.3.2Z"/>
  <path class="st0" d="M23.2,33.9c.2,0,.3-.2.3-.4,0-.3,0-.6,0-.8h0c0-.2-.1-.3-.4-.3-.2,0-.2.3-.3.5h0c0,0,0,0,0,.1,0,0,0,0,0,.1,0,.1-.2.3,0,.5,0,0,.2.1.3.1s0,0,.1,0Z"/>
  <path class="st0" d="M30.7,17.7c0,.2.3.5.6.5s0,0,0,0c0,0,.2,0,.3-.1,0-.1,0-.2,0-.3,0,0,0,0,0,0,0,0,0,0,.1,0,0,0,.2-.1.2-.2,0,0,0-.1-.1-.2-.2-.1-.5-.3-.9,0-.2,0-.2.3-.1.5Z"/>
  <path class="st0" d="M32.8,28c-.1-.1-.4-.2-.7,0-.1.1-.2.3-.1.4,0,.2.2.3.4.3,0,0,0,0,0,0,.2,0,.3,0,.4-.2.2-.3.1-.5,0-.6Z"/>
  <path class="st0" d="M23.5,10.3c0,0,.2.1.3.1s0,0,0,0c.2,0,.4-.2.5-.4,0-.1,0-.3,0-.4-.2-.2-.5-.1-.6,0-.2.1-.3.4-.1.6Z"/>
  <path class="st0" d="M17.1,18.5c0,.2,0,.4.4.4,0,0,0,0,0,0,.2,0,.3,0,.4-.2,0-.1.1-.3,0-.4,0,0-.2-.2-.5-.2-.2,0-.3.2-.3.4Z"/>
  <path class="st0" d="M25,19.5s0,0,0,0c.4,0,.7-.9.8-1.1.1-.3.5-1.2,0-1.4,0,0-.2,0-.3,0-.4.3-.9,1.7-.8,2.2,0,.2.1.2.2.2Z"/>
  <path class="st0" d="M30.8,27.1h0c-.3.1-.4.5-.3.7,0,.1.2.2.3.2s.1,0,.2,0c.2,0,.3-.3.4-.4,0-.2,0-.3-.1-.4,0,0-.2,0-.4,0Z"/>
  <path class="st0" d="M19,28.9c-.1,0-.2.1-.2.3,0,.2.4.7.7.7h0c.1,0,.2,0,.2-.1,0-.2-.1-.4-.2-.5,0,0-.3-.3-.5-.3Z"/>
  <path class="st0" d="M30.3,32.1h0c-.1,0-.3,0-.4,0-.3.2-.3.4-.2.6,0,.1.2.2.3.2s.2,0,.3,0c.2,0,.3-.2.3-.4,0-.1,0-.3-.2-.3Z"/>
  <path class="st0" d="M33.1,21.4c0-.2-.4-.4-.5-.3,0,0,0,0-.1,0-.1,0-.2,0-.3.1,0,0,0,.2,0,.2,0,.1.1.3.3.3,0,0,.1,0,.2,0,.1,0,.2,0,.3,0,.1,0,.2-.2.1-.4Z"/>
  <path class="st0" d="M26.6,25.1s0,0,0,0c0,.2.4.4.5.4h0s0,0,0,0c0,0,.1,0,.2.1,0,0,.2.2.3.2s0,0,.1,0c0,0,0,0,0,0,.2,0,.2,0,.3-.3.1-.3-.2-.4-.4-.5,0,0-.1,0-.2,0,0,0-.1-.1-.2-.2-.1-.1-.3-.3-.4-.3-.2-.3-.8-.7-1.2-.8-.2,0-.3,0-.4,0,0,0-.1.3.2.6.2.3.6.5.9.6Z"/>
  <path class="st0" d="M26.5,31.6s0,0,0,0c-.1,0-.3,0-.3.4,0,.1,0,.2.1.2,0,0,0,0,.1,0,0,0,.2,0,.3,0,.1-.1.3-.3.2-.5,0,0,0-.1-.1-.1,0,0-.2,0-.3,0Z"/>
  <path class="st0" d="M26.3,16.8s0,0,.1,0c.1,0,.2,0,.3-.2.1-.3.1-.6-.1-.8-.1,0-.2,0-.3,0-.1,0-.2.3-.2.6,0,.2,0,.3.2.4Z"/>
  <path class="st0" d="M29.9,18.7c.1,0,.2-.2.2-.3,0-.2-.1-.4-.3-.4-.1,0-.2,0-.4,0-.2.2-.2.4,0,.6,0,.1.2.2.4.2s.1,0,.2,0Z"/>
  <path class="st0" d="M33.2,23.5c0,0,.1,0,.2,0,.1,0,.2-.3.2-.4,0,0,0-.1,0-.2-.2-.1-.3,0-.4,0-.1.1-.2.4,0,.5,0,0,0,0,.2,0Z"/>
  <path class="st0" d="M23.7,37.7c0,0-.3,0-.4.2-.2.5-.2,1.5.2,1.7,0,0,0,0,.1,0s0,0,.1,0c.3-.2.3-.9.3-1.4,0-.3-.2-.5-.3-.6h0Z"/>
  <path class="st0" d="M23.9,11.8h0s0,0,0,0c0,0,.2,0,.2-.2.1-.2,0-.6,0-.7,0,0,0,0,0,0-.1-.1-.2-.1-.3,0-.1.1-.2.5-.2.7,0,.2.2.3.2.3Z"/>
  <path class="st0" d="M27.3,31c-.2-.1-.4,0-.5.1h0c0,.1,0,.3,0,.4,0,0,.1,0,.2,0s.2,0,.2,0c0,0,.2-.2.2-.3,0,0,0-.1-.1-.2Z"/>
  <path class="st0" d="M31.4,16.9c0,0,.1-.1.1-.2,0,0,0-.2-.1-.2-.2-.1-.4,0-.5.1,0,0,0,.2,0,.2.1,0,.2.1.3.1s.1,0,.2,0Z"/>
  <path class="st0" d="M23.5,46h0c0,0-.2,0-.2.2,0,.1,0,.3,0,.4,0,0,.1,0,.2,0s0,0,0,0c.2,0,.2-.2.2-.4,0-.2-.1-.3-.3-.2Z"/>
  <path class="st0" d="M44.3,22.1c.2-.8.2-1.6.1-2.4,0-.1,0-.2-.1-.3,0,0,0-.1-.1-.2,0,0,0-.2,0-.3,0-.2,0-.5-.1-.7,0,0,0-.2-.1-.3h0c-.2-.3-.4-.7-.4-.9,0-.1,0-.2,0-.3,0,0,0-.2,0-.3v-.2c0-.3-.1-.7-.2-.9,0,0,0-.1,0-.2,0-.2,0-.3-.3-.4-.1,0-.2,0-.2,0-.1.1,0,.4,0,.5,0,0,0,0,0,0,0,0,0,0,0,0,0,0,0,.1,0,.2,0,0,0,.1,0,.2,0,0,0,.1,0,.2,0,0,0,0,0,0,0,0-.2,0-.2.2,0,0,0,.1,0,.2,0,.1.2.2.3.2.1,0,.2.1.3.2,0,0,0,.2,0,.3,0,.1,0,.3,0,.4,0,.1.1.2.2.2,0,0,0,0,0,.1,0,.1,0,.2,0,.4,0,0,0,.2,0,.3,0,.2,0,.3.1.5h0c0,.2.1.3.1.5,0,.4.1,1.3-.2,1.8,0,.1,0,.2,0,.3,0,0,0,0,0,0,0,0,0,0,0,0,0,0-.2.1-.2.3,0,.1,0,.3,0,.5,0,.2,0,.3,0,.4,0,0,0,.1,0,.2,0,0,0,.2,0,.3,0,0,0,.2,0,.2,0,0,0,.2,0,.2,0,0,0,0-.1,0,0,0-.1,0-.2,0,0,0,0,0,0,0,0,.1,0,.2.1.2,0,0,.1,0,.1.1,0,.2,0,.5-.1.6h0s0,0,0,0c0,0,0,0-.1,0,0,0,0,.1,0,.2,0,.2,0,.3,0,.4-.1.1-.2.3-.2.4h0c0,.2,0,.3,0,.4,0,0,0,0,0,0,0,0,0,0,0,0,0,0,0,.1,0,.3,0,0,0,.1,0,.2,0,0,0,0,0,0,0,0,0,0,0,0,0,0-.1,0-.2.2,0,.1,0,.2,0,.3,0,0,0,0,0,.1,0,0,0,0-.1.1,0,0-.2.1-.2.3,0,.1,0,.2.1.2,0,0,0,0,0,0,0,.2,0,.5,0,.6,0,0,0,.2,0,.2,0,0,0,0,0,.1,0,0-.1.2-.2.3h0c0,0,0,.2-.1.2,0,0-.1,0-.2,0,0,0-.2,0-.2.1,0,.1,0,.2,0,.3,0,0,0,0,0,0,0,.1,0,.3,0,.5,0,.1-.2.3-.4.5,0,0,0,0-.1,0,0,0,0,0-.2.1,0,0-.1.1-.1.2,0,0,0,.1-.1.2,0,0,0,0-.1,0,0,0-.1,0-.2.1,0,0,0,.2-.1.2,0,.1,0,.1,0,.1,0,0-.1,0-.2,0-.2,0-.5,0-.6.2h0c0,0,0,.2,0,.2,0,0,.3.2.3.3,0,0,0,0-.3.2,0,0,0,0,0,0,0,0,0,0,0,0h0s-.6,0-.8.2c0,0,0,.1,0,.2,0,.2.2.2.4.2.1,0,.2,0,.2,0,0,0,0,0,0,0,0,0,0,0,0,0,0,0-.1,0-.2,0,0,0,0,.1-.1.2,0,0,0,0,0,.1,0,0,0,0,0,0,0,0-.1,0-.2.1,0,0,0,.2,0,.2,0,0,0,0,0,.1-.2.2-.4.4-.4.6,0,0,0,0,0,0-.1,0-.3,0-.4,0,0,.1,0,.3,0,.4,0,0,0,0,0,.1,0,0,0,.1-.2.2,0,0-.1.1-.2.2,0,0,0,.2,0,.2,0,0,0,.1,0,.2t0,0c-.1,0-.2,0-.3.2h0c0,.3-.3.7-.5.6,0,0-.1,0-.2,0,0,0,0,.1,0,.2,0,0,0,.1,0,.1,0,0,0,0,0,0,0,0-.2,0-.2,0-.2,0-.3-.1-.4,0,0,0,0,0,0,.1,0,.2.2.3.4.4.1,0,.3,0,.3.2,0,0-.2,0-.3,0-.2,0-.4,0-.4,0,0,0,0,0,0,.1,0,.1.1.2.2.2,0,0,0,0,.1,0,0,0,0,0,0,0,0,0-.1,0-.2.2,0,0,0,.2,0,.3,0,0,0,0,0,.1,0,0,0,0,0,0,0,0,0,0-.1.2h0c0,.2-.2.4-.2.5,0,.1,0,.2,0,.3,0,0,0,.2,0,.2,0,0,0,0,0,.1,0,0-.1.1-.1.2,0,.1,0,.2,0,.2,0,0,0,0,0,0,0,.2,0,.3.1.4,0,.3,0,.7,0,1,0,.4,0,.8,0,1.2,0,.1,0,.2.2.3,0,0,0,0,.1,0,0,0,.2,0,.3,0,.3-.2.2-.6,0-1h0c0-.2,0-.5,0-.7,0-.2,0-.3,0-.5,0-.2,0-.2-.2-.3,0,0,0,0,0,0,0,0,0,0,0-.1,0,0,0-.1,0-.2,0-.1,0-.1-.1-.2,0,0,0,0,0,0,0-.2,0-.5.2-.8,0,0,0-.2.1-.2h0c0-.3.2-.5.4-.8.1-.2.3-.5.4-.7.2-.3.3-.7.6-1.1.3-.4.6-.9.9-1.5.2-.3.4-.6.5-.8.1-.2.2-.3.3-.4.1-.1.2-.3.3-.4h0c.2-.3.3-.4.5-.7l.3-.3c1-1.2,2.1-2.4,2.9-3.9.2-.3.4-1.1.4-1.5,0-.2,0-.3-.1-.4,0,0,0-.1,0-.2,0,0,0-.1.2-.2.1,0,.2-.1.3-.3,0-.1,0-.2,0-.3,0,0,0,0,0-.2,0-.3.1-1,.2-1.3,0-.1,0-.2.1-.2,0,0,.1-.2.1-.4,0-.2,0-.3,0-.5,0-.1,0-.3,0-.5,0-.3.1-1.1,0-1.4,0-.2,0-.2,0-.3,0,0,0,0,0,0,0,0,0,0,0-.1,0,0,0-.1.1-.2Z"/>
  <path class="st0" d="M24.8,7.2c.1,0,.1-.2.1-.2,0,0,0,0,0,0,0,0,0,0,0,0h0c.1-.2.3-.4.5-.4.3,0,.5,0,.6.1,0,0,0,0,0,0-.1,0-.2.1-.1.3,0,.3.3.3.5.3,0,0,.1,0,.2,0,0,0,0,0,0,.1,0,0,0,.1.1.2.2.2.2.3.2.3,0,0,0,0,0,.1,0,0,0,0,0,.2-.1.6,0,1.1,0,1.6-.1,0-.3,0-.4,0,0,0-.2,0-.2,0,0,0,0,0,0,0,0,0,0-.1-.1-.2-.1,0-.2,0-.3,0,0,0-.1,0-.1,0,0,0,0,0,0,0,0,0,0-.2-.1-.3-.1-.1-.3-.7-.3-1,0,0,0-.1,0-.1,0,0,0-.1,0-.3,0,0-.1-.1-.2-.2-.1,0-.2,0-.3.1-.1.1,0,.3,0,.4,0,0,0,0,0,.1,0,.2,0,.5.2.8h0c0,.2,0,.3,0,.5,0,.1,0,.2,0,.3,0,.1,0,.2.1.2,0,0,0,0,0,.1,0,0,0,.2,0,.3,0,.1,0,.2,0,.3,0,.1,0,.2,0,.2,0,0,0,0,0,.2h0c0,.5,0,1.1.2,1.5,0,.2.2.3.3.4,0,.1.2.2.2.3,0,.1,0,.2.1.3h0s0,0,0,0c0,.1,0,.2,0,.3,0,.2.2.3.4.3,0,0,0,0,.1,0,.2,0,.3.2.5.3.1,0,.2.2.4.2.1,0,.4.1.6.1s.3,0,.4,0c0,0,.1-.2.1-.3,0,0,0-.2-.1-.2,0,0-.1,0-.2,0,0,0,0,0,0,0,0-.2,0-.5-.1-.7-.2-.1-.5-.1-.6,0,0,0,0,0-.1.1-.1,0-.3,0-.4,0,0,0-.2,0-.2,0-.2,0-.3-.3-.4-.5,0,0,0,0,0,0,0,0,0,0,.1,0,.2-.2.2-.5,0-.7,0-.1-.2-.2-.3-.2,0,0,0-.1,0-.2,0-.2-.1-.3-.3-.4,0,0-.1-.1-.2-.2,0,0,0-.1,0-.2,0,0,0,0,0-.1,0,0,0,0,0,0,0,0,0,0,0-.2,0-.1,0-.2-.2-.2,0,0,0,0,0,0,0,0,0,0,0,0,0,0,0,0,0-.2,0,0,0-.1,0-.2,0,0,0-.1,0-.1,0,0,0,0,0,0,0,0,.2,0,.4,0,.3,0,.7,0,.9-.1,0,0,0,.1,0,.2v.2c0,0,0,.1,0,.2,0,.2,0,.6.5.7.2,0,.3,0,.3-.1.1-.2,0-.6-.1-.8h0c-.2-.6-.2-1.3-.2-1.8,0-.1,0-.2,0-.3,0-.2,0-.4,0-.5,0,0,0-.2,0-.3,0-.2,0-.2-.1-.3,0,0,0,0,0,0,0,0,0-.1,0-.2h0c0-.1,0-.3,0-.4,0,0,0,0,0,0,0,0,.1,0,.1-.2,0-.1-.1-.2-.2-.3,0,0,0,0,0,0,0,0,0,0,0,0,0,0,0,0,0-.2,0,0,0-.1,0-.2,0,0,0,0,0-.2,0,0,0-.1,0-.2,0-.2,0-.5,0-.7,0,0,0-.2,0-.3,0-.3,0-.7.2-.9.2-.2.5-.3.8-.3h0s0,0,0,0c0,0,0,.1.2.2,0,0,.2,0,.2,0,0,0,.1,0,.2.1.1.2.1.5.1.7,0,0,0,.2,0,.2,0,.4.2,1,.3,1.2,0,.2.1.3.2.4,0,0,.1.1.1.3,0,0,0,.2,0,.3h0c0,.3.1.5.2.7,0,.2.1.2.2.2,0,0,0,0,0,.1,0,0,0,.1,0,.2,0,0,0,.2,0,.4,0,.3,0,.7.2,1.2,0,.2,0,.4.1.7,0,.4.2.9.3,1.3,0,.1,0,.2.1.3.1.4.2.7.2,1,0,.2,0,.3,0,.5,0,.2,0,.5,0,.7,0,0,0,.1,0,.2,0,.4,0,1,.3,1.3,0,0,.2.2.3.2s0,0,0,0c.2,0,.2-.3.2-.5,0-.2,0-.5-.1-.8,0-.2,0-.4-.1-.6,0-.2,0-.5,0-.8,0-.3,0-.7,0-1,0-.3-.1-.5-.2-.6,0-.1-.2-.3-.2-.5h0c-.1-.5-.3-1.5-.4-2,0,0,0-.1,0-.2h0c0-.4,0-.6-.2-.9,0,0,.1-.1.2-.2,0-.2,0-.5-.1-.7,0-.1,0-.1,0-.2,0,0,0-.1,0-.2,0-.1-.1-.2-.2-.2,0,0,0,0-.1-.1,0,0,0-.2-.1-.4,0-.1,0-.2,0-.3,0,0,0-.1-.1-.2,0,0,0,0,0-.1,0-.2-.2-.8-.2-1.1,0-.2,0-.3,0-.4,0,0,0-.1,0-.2,0-.1,0-.2,0-.3,0,0,0,0,0-.2h0c.1-.2.3-.4.5-.5.2,0,.7,0,.9,0,0,0,0,0,.1.1,0,0,0,.1.1.2,0,0,0,0,.1.1.2.2.4.4.5.6,0,0,0,.1,0,.2,0,.1,0,.3.2.4h0c.1.2.3.4.4.4-.2,0-.3.4-.4.5,0,.2-.1.7,0,1,0,0,.1.1.2.2,0,0,0,0,0,0,0,0,.1,0,.2,0,.1-.1.1-.4.1-.5s0,0,0-.1c0,0,0-.2,0-.2,0,0,0,0,0-.1,0,0,0,0,0,0,0-.2.1-.4,0-.5,0,0,0,0,0,0,.1,0,.2-.1.3-.2,0,0,0,0,.1-.1.1,0,.2,0,.3-.1,0,0,0,0,0,0,0,0,0,0,0,.1.1,0,.2,0,.2,0,0,0,0,0,0,0,.2,0,.7.3.9.4,0,0,.1.1.1.2,0,0,0,.1.2.2,0,0,.2,0,.3,0,.1,0,.2,0,.2,0,0,0,0,0,0,.2,0,0,0,.2,0,.3,0,.1.2.3.3.5,0,.1.2.3.2.4,0,.1.1.3.2.5,0,.1,0,.2.1.3,0,.1.1.2.1.2,0,0,0,0,0,0,0,0,0,0,0,.1,0,0,0,.2,0,.3,0,.1.2.2.4.3,0,0-.1.2-.2.3,0,0,0,.1,0,.1,0,0-.1,0-.2,0-.1,0-.3,0-.3.2,0,0,0,.1,0,.2,0,0,0,.1.2.1.1,0,.2,0,.3,0,0,0,.1,0,.2,0,.2,0,.2.3.3.5h0c0,0,0,0,0,.1,0,.2.3.6.4.9h0c0,.2.1.3.2.4.2.3.4.8.4,1.1,0,.2,0,.3,0,.4,0,0,0,.2,0,.3,0,.2,0,.6.3.7,0,0,0,0,.2,0s0,0,0,0c0,0,0,0,0,0,0,0,0,.1,0,.1,0,0,0,0,0,0,0,.2,0,.6,0,.8,0,0,0,0,0,.1,0,0,0,.2.2.2,0,0,0,0,.1,0s.1,0,.2,0c0,0,0,0,0,0,0,0,0,0,0,.1,0,0,0,0,0,0h0c0,.2-.2.4,0,.6,0,0,0,.1.2.1,0,0,0,0,0,0,0,0,0,0,.1,0,.1,0,.2-.3.2-.4,0,0,0-.1,0-.1,0,0,0,0,.1,0,0,0,.2,0,.3-.2,0-.1,0-.2,0-.3,0,0,0,0,0,0,0,0,0,0,.1,0,0,0,.2,0,.3-.2,0,0,.2-.2.3-.3h0c0,0,0-.1.1-.2,0-.1,0-.2,0-.3,0,0,0,0,0,0,0,0,.3-.2.6-.2,0,0,.1,0,.2,0h0c.2,0,.4,0,.5,0,.1,0,.2,0,.2.3,0,0,0,0,0,.1h0c0,.3,0,.7,0,.8,0,0,.1,0,.2,0,.4,0,.4-.4.3-.6,0,0,0-.1,0-.2,0-.5,0-.8-.4-1-.3-.2-.4-.3-.8-.3-.4,0-.9.2-1.2.5-.2.2-.2.3-.4.4,0,0-.1.1-.2.2-.2.2-.5.5-.6.8,0,0,0,0,0,0,0-.3-.2-.8-.4-.8,0,0-.1,0-.2,0,.3-.1.3-.6.2-.9,0,0,0,0,0-.1,0,0,0-.1,0-.1,0,0,0-.1,0-.2-.1-.4-.3-.8-.5-1.2-.2-.3-.3-.7-.4-1t0,0s0-.1,0-.3c0-.2-.1-.3-.2-.3,0,0-.2-.1-.2-.2,0,0,0-.1,0-.2,0-.3-.2-.8-.5-.8.1-.1.1-.4,0-.7-.1-.6-.5-1.2-.8-1.7,0,0,0-.2-.1-.2-.1-.2-.2-.3-.2-.4h0c0-.1-.1-.2-.3-.5-.3-.5-1.3-1-1.8-1.2-.5-.1-.8,0-1.1,0-.2,0-.2.2-.2.2,0,0,0,0,0,0,0,0,0,0,0,0,0,0,0,0-.1-.2,0,0,0-.2-.1-.2,0,0-.1-.1-.2-.1,0,0-.1,0-.2-.1,0,0,0,0,0-.1,0,0,0-.2,0-.3-.1-.3-.6-.8-.9-1h0c-.2-.1-.3-.2-.6-.2-.2,0-.4,0-.6,0,0,0,0,0-.1,0-.2,0-.5.3-.7.5,0,0-.1.1-.2.2,0,0-.1.2-.1.2,0,0-.2,0-.3,0-.2,0-.4-.2-.7-.2,0,0-.5.1-.7.3,0,0,0,0-.1,0-.1,0-.2.1-.3.3,0,0,0,0-.1.1-.1.1-.3.3-.3.6,0,.1,0,.3,0,.4,0,.2-.1.5-.1.7,0,.1,0,.3,0,.4,0,.2,0,.3,0,.5,0,0-.2,0-.3,0h0c-.3,0-.6.1-.8.3l-.3.3s0,.1-.1.2c0,.1-.2.2-.3.4,0,.2,0,.4,0,.5,0,0,.2,0,.3,0ZM37.4,8.2h0s0,0,0,0h0ZM39.5,15.2h0s0,0,0,0Z"/>
  <path class="st0" d="M36.6,18.7c.1,0,.2-.1.2-.2,0-.3-.3-.4-.5-.5,0,0-.2,0-.2,0-.1-.1-.2-.3-.3-.4,0,0,0,0,0,0,0,0,0-.1,0-.2,0-.1,0-.2-.1-.2,0,0,0,0,0,0,0,0,0,0,0-.2,0,0,0-.1,0-.2-.2-.6-.3-1.3-.4-1.9,0,0,0-.1,0-.2,0-.1,0-.3,0-.4,0-.1,0-.2-.2-.2,0,0,0,0-.1-.2,0-.2-.2-.7-.3-1,0,0,0-.1,0-.2,0,0,0-.1,0-.2,0,0,0-.2-.1-.2,0,0,0,0,0,0,0,0,0,0,0-.2,0,0,0-.2,0-.3,0-.1-.1-.2-.2-.2,0,0,0,0,0,0,0,0,0-.1,0-.2,0-.1,0-.3,0-.4,0,0,0,0,0,0,0,0,0,0,0,0,0-.3,0-.7,0-1h0c0-.1,0-.2,0-.2,0-.3-.2-.8-.4-1,0,0-.2,0-.3,0-.1,0-.2,0-.3,0,0,0,0,.1,0,.2,0,0,0,0,0,.2,0,.2.1.4.2.7,0,.2.2.4.2.5,0,0,0,.2,0,.2,0,.2,0,.4.3.5,0,0,0,0,0,0-.1.2,0,.4,0,.6,0,0,0,0,0,.1,0,0,0,0,0,.1,0,0,0,.1,0,.3h0c0,.2,0,.4.2.7,0,.1.1.3.2.6,0,.2.2.5.2.7,0,.1,0,.2,0,.3,0,0,0,.1,0,.2,0,.4.1.9.2,1.4,0,.4.1.8.1,1,0,.3,0,.4-.1.5,0,.1-.1.3,0,.5.1.3.4.4.7.6.1,0,.2,0,.3.1.2.1.6.3.9.3s.1,0,.2,0Z"/>
  <path class="st0" d="M38.5,24.1s0,0,.1-.1c0-.1.2-.2.3-.3,0,0,.1-.2.2-.3.1-.2.2-.5.2-.8h0c0-.1,0-.2,0-.2,0,0,0-.1,0-.1,0,0,.1,0,.2-.2,0,0,0,0,0-.1,0-.1.2-.4.3-.4,0,0,0,0,.1,0,0,0,.2,0,.3,0,0,0,0,0,.1-.1,0,0,0-.1,0-.2,0,0-.2-.1-.2-.1,0,0,0,0,0,0,0,0,0-.1,0-.2,0,0,0-.2,0-.3,0,0,0-.2-.2-.2h0c0,0-.2,0-.2.2-.1.2-.2.5-.3.8,0,0,0,.2,0,.2,0,.1,0,.2,0,.3,0,0,0,.1,0,.2,0,0,0,.1-.1.1,0,0-.1.1-.2.2,0,0,0,.2,0,.3,0,.1,0,.2-.1.3-.1.2-.5.6-.7.7,0,0,0,0-.1,0,0,0-.1,0-.2,0-.2,0-.3.2-.3.3,0,0,0,0,0,0,0,0,0,0,0,0,0,0-.2.1-.2.2,0,0,0,.1,0,.2.1,0,.3,0,.5,0,0,0,.2,0,.2,0,0,0,.1,0,.2.1.2.1.3.2.5.2s0,0,0,0c0,0,.1,0,.2-.1,0,0,0-.1,0-.2,0-.1-.1-.2-.2-.2,0,0-.1,0-.1,0,0,0,0-.2.2-.3h0Z"/>
  <path class="st0" d="M38.9,17.6c0,.2,0,.6.2.8,0,0,.1.1.2.1s.1,0,.2,0h0c.2-.1.1-.3,0-.5,0,0,0,0,0-.1,0,0,0,0,0,0,0,0,0-.1,0-.2,0,0,0-.2,0-.2,0,0,0-.2,0-.3,0,0,0,0,0,0h0c0-.2.2-.5,0-.7,0,0-.2-.1-.3-.1-.4,0-.4.5-.4.8h0c0,0,0,.1,0,.2,0,0,0,.1,0,.2,0,0,0,.1,0,.3Z"/>
  <path class="st0" d="M36.8,13.5h0c-.2-.2-.6-.1-.9,0,0,0,0,0,0,0,0,0-.2,0-.3,0,0,.1,0,.3,0,.5,0,0,0,0,0,.1,0,0-.1.1,0,.3,0,0,.1.1.3.2h0c.2,0,.5,0,.5-.2,0-.1,0-.2,0-.2t0,0s0,0,0,0c0,0,.2,0,.2-.2,0-.2,0-.3,0-.3Z"/>
  <path class="st0" d="M42.3,14.4h0c0-.2,0-.6-.1-.7,0,0-.1,0-.2,0-.2,0-.2.3-.2.5,0,0,0,.2,0,.3,0,.3,0,1.3.1,1.5,0,0,0,.1,0,.2,0,0,0,.2.2.2,0,0,0,0,0,0,0,0,.1,0,.2,0,.3-.2,0-.7,0-.9h0c0-.2,0-.5,0-.7,0,0,0-.1,0-.2Z"/>
  <path class="st0" d="M32.3,6.8c-.1-.2-.3,0-.5,0,0,0-.1,0-.2,0,0,0,0,0,0,0,0,0,0-.2-.2-.2,0,0-.1,0-.2,0h0c-.2.1-.7.4-.5.8,0,0,.1.2.4.2,0,0,0,0,0,0,.4,0,.8-.2,1-.3,0,0,0,0,0,0,0-.1,0-.2,0-.3h0Z"/>
  <path class="st0" d="M34.5,10.1c0,0,.1,0,.2,0,.2,0,.4,0,.5-.1,0,0,0,0,.1,0,0,0,.1,0,.2,0,.1,0,.3.1.5,0,0,0,.1-.2,0-.3-.1-.2-.6-.3-.8-.3,0,0-.1,0-.2,0,0,0,0,0-.1,0,0,0,0,0-.1,0-.2,0-.4,0-.5.2,0,0,0,.2,0,.3,0,0,.1.2.2.2Z"/>
  <path class="st0" d="M34.8,27.1s0,0,0,0c.2,0,.3-.2.4-.3h0c.2-.3.4-.6.4-.8,0,0,0,0,0,0,0,0,0,0,0-.2,0,0-.1,0-.2-.1,0,0,0,0,0,0-.2,0-.5.3-.6.4,0,.1-.4.5-.3.8,0,.2.1.2.2.3Z"/>
  <path class="st0" d="M39.4,18.7s0,0,0,0c-.2,0-.2,0-.3.2,0,0,0,0,0,0,0,.2,0,.3.1.4,0,0,0,0,0,.1,0,0,0,.1,0,.2,0,.2.1.4.3.5,0,0,0,0,.1,0s0,0,.1,0c0,0,.2-.1.2-.2,0-.2,0-.4-.2-.6,0,0,0-.1,0-.2,0,0,0,0,0-.1,0-.2-.1-.5-.4-.5Z"/>
  <path class="st0" d="M35,28.2c0-.2,0-.7-.3-.7h0s0,0,0,0c-.2,0-.3,0-.4.3-.2.3-.2.7-.1.9,0,.1.1.2.3.2,0,0,.2,0,.4-.2,0,0,.3-.2.3-.4Z"/>
  <path class="st0" d="M30.8,25h0s0,0,0,0c0,0,0,0,.1,0,.2,0,.7-.4,1.1-.7h0c0-.1.1-.1.2-.1,0,0,.1,0,.2-.1.2-.1.1-.3.1-.3,0,0-.2-.1-.3,0-.1,0-.2.1-.2.2,0,0,0,0-.1,0-.1,0-1.4.5-1.4.9h0c0,.2,0,.2,0,.3h0Z"/>
  <path class="st0" d="M33.2,7.2s0,0,0,0c0-.1,0-.2-.2-.2,0,0,0,0,0,0,0,0,0,0,0-.1,0-.1,0-.3,0-.4,0,0-.1-.1-.2-.1,0,0-.2,0-.2.1-.1.1-.1.4,0,.6,0,0,.1.1.1.1,0,0,0,0,0,0,0,.1.1.3.3.4,0,0,0,0,.1,0s0,0,0,0c.2,0,.2-.2.2-.3Z"/>
  <path class="st0" d="M27.7,7.9c0,0,0,.1.1.2,0,0,.1,0,.2,0,.2,0,.4,0,.6-.1.1,0,.2-.2.1-.3,0-.1-.2-.2-.3-.2,0,0,0,0,0,0,.1-.2.1-.3,0-.4,0-.1-.3-.1-.5,0-.1,0-.2.2-.1.3,0,.1,0,.2.2.2-.2,0-.5.2-.5.4Z"/>
  <path class="st0" d="M32.1,11.9s-.1,0-.1.1c0,0,0,.1.2.2,0,0,.3,0,.4,0s.3,0,.4,0c0,0,.1-.1.2-.2,0,0,0-.2,0-.2,0,0-.2,0-.3,0,0,0,0-.1.1-.2,0,0,0-.2,0-.2,0,0-.2,0-.5,0-.3,0-.4.3-.4.4,0,0,0,.1.2.2,0,0,0,0,0,0,0,0,0,0,0,0Z"/>
  <path class="st0" d="M28.8,10.9h0c-.1,0-.2.1-.2.2,0,.1,0,.3,0,.5,0,0,.2.1.3.1s0,0,.1,0c.1,0,.2-.1.2-.2,0-.2-.2-.4-.3-.5,0,0-.2,0-.3,0Z"/>
  <path class="st0" d="M37.5,13.4c0,0,.2,0,.3,0s.3,0,.4,0c.2,0,.2-.2.2-.4,0-.1-.1-.2-.2-.2-.2,0-.5.1-.6.2,0,0,0,0,0,0-.1.1,0,.2,0,.2h0Z"/>
  <path class="st0" d="M33.3,38.4c-.1,0-.2.1-.2.2,0,0,0,.1,0,.2,0,0,.2.1.5.1s.2,0,.3,0h0s0,0,0,0c.1,0,.3,0,.3,0,0,0,0-.1,0-.2-.1,0-.6-.3-.9-.2Z"/>
  <path class="st0" d="M36.3,25.4c0,0,0-.1,0-.2,0,0,0,0-.2-.1h0c0,0-.2,0-.3,0,0,.1,0,.2,0,.3,0,.1.1.2.2.2s.2,0,.3-.3Z"/>
  <path class="st0" d="M32.9,38.8h0c-.1,0-.2,0-.3.2,0,.1,0,.2.2.3,0,0,.1,0,.1,0s0,0,.1,0c0,0,.1-.2,0-.3,0,0-.1-.1-.2-.1Z"/>
  <path class="st0" d="M32.5,11.3s0,0,0,0c0,0,0,0,0-.1,0,0,0-.1-.1-.2-.1,0-.3,0-.4,0h0c0,0-.1.1,0,.2,0,.2.3.2.4.2,0,0,.1,0,.1,0Z"/>
</svg>
